<svg width="100" height="100" viewBox="0 0 100 100" fill="none" xmlns="http://www.w3.org/2000/svg">
<path d="M13.1 59H16.95V53.65L18.975 51.55L24.4 59H29.025L21.575 48.925L28.725 41.5H24L16.95 49.15V41.5H13.1V59ZM36.7799 59.3C40.9549 59.3 44.0549 56.175 44.0549 52.325V52.275C44.0549 48.425 40.9799 45.35 36.8299 45.35C32.6549 45.35 29.5549 48.475 29.5549 52.325V52.375C29.5549 56.225 32.6299 59.3 36.7799 59.3ZM36.8299 56.025C34.7299 56.025 33.3049 54.3 33.3049 52.325V52.275C33.3049 50.3 34.6049 48.625 36.7799 48.625C38.8799 48.625 40.3049 50.35 40.3049 52.325V52.375C40.3049 54.35 39.0049 56.025 36.8299 56.025ZM51.3314 59.225C52.6064 59.225 53.5314 58.925 54.3314 58.45V55.4C53.7814 55.7 53.1564 55.875 52.4564 55.875C51.6064 55.875 51.2314 55.45 51.2314 54.575V48.85H54.3814V45.6H51.2314V42.175H47.4314V45.6H45.8314V48.85H47.4314V55.2C47.4314 58.3 49.0064 59.225 51.3314 59.225ZM57.3574 59H61.1574V40.75H57.3574V59ZM64.8014 44.125H68.8014V40.75H64.8014V44.125ZM64.9014 59H68.7014V45.6H64.9014V59ZM72.2703 59H76.0703V51.525C76.0703 49.725 76.9953 48.8 78.4453 48.8C79.8953 48.8 80.7453 49.725 80.7453 51.525V59H84.5453V50.325C84.5453 47.25 82.8703 45.35 79.9953 45.35C78.0703 45.35 76.9453 46.375 76.0703 47.5V45.6H72.2703V59Z" fill="black"/>
</svg>
