<svg width="100" height="100" viewBox="0 0 100 100" fill="none" xmlns="http://www.w3.org/2000/svg">
<path d="M24.325 59.25C28.1 59.25 30.75 57.3 30.75 53.825V53.775C30.75 50.725 28.75 49.45 25.2 48.525C22.175 47.75 21.425 47.375 21.425 46.225V46.175C21.425 45.325 22.2 44.65 23.675 44.65C25.15 44.65 26.675 45.3 28.225 46.375L30.225 43.475C28.45 42.05 26.275 41.25 23.725 41.25C20.15 41.25 17.6 43.35 17.6 46.525V46.575C17.6 50.05 19.875 51.025 23.4 51.925C26.325 52.675 26.925 53.175 26.925 54.15V54.2C26.925 55.225 25.975 55.85 24.4 55.85C22.4 55.85 20.75 55.025 19.175 53.725L16.9 56.45C19 58.325 21.675 59.25 24.325 59.25ZM40.0162 59.3C42.6912 59.3 44.1912 58.275 45.4912 56.85L43.2662 54.6C42.3412 55.475 41.4662 56.025 40.1912 56.025C38.1162 56.025 36.7912 54.375 36.7912 52.325V52.275C36.7912 50.3 38.1412 48.625 40.0412 48.625C41.3912 48.625 42.2412 49.2 43.0912 50.1L45.4162 47.6C44.1662 46.2 42.5912 45.35 40.0662 45.35C35.9662 45.35 33.0412 48.5 33.0412 52.325V52.375C33.0412 56.2 35.9912 59.3 40.0162 59.3ZM51.7734 59.25C53.6234 59.25 54.8984 58.575 55.8234 57.55V59H59.4984V51.225C59.4984 49.425 59.0484 47.95 58.0484 46.95C57.0984 46 55.5984 45.45 53.5234 45.45C51.2484 45.45 49.7984 45.875 48.3234 46.525L49.2734 49.425C50.4984 48.975 51.5234 48.7 52.9734 48.7C54.8734 48.7 55.8484 49.575 55.8484 51.15V51.375C54.8984 51.05 53.9234 50.825 52.5734 50.825C49.3984 50.825 47.1734 52.175 47.1734 55.1V55.15C47.1734 57.8 49.2484 59.25 51.7734 59.25ZM52.9234 56.625C51.6984 56.625 50.8484 56.025 50.8484 55V54.95C50.8484 53.75 51.8484 53.1 53.4734 53.1C54.3984 53.1 55.2484 53.3 55.8984 53.6V54.275C55.8984 55.65 54.6984 56.625 52.9234 56.625ZM62.9434 59H66.7434V40.75H62.9434V59ZM74.1123 59.25C75.9623 59.25 77.2373 58.575 78.1623 57.55V59H81.8373V51.225C81.8373 49.425 81.3873 47.95 80.3873 46.95C79.4373 46 77.9373 45.45 75.8623 45.45C73.5873 45.45 72.1373 45.875 70.6623 46.525L71.6123 49.425C72.8373 48.975 73.8623 48.7 75.3123 48.7C77.2123 48.7 78.1873 49.575 78.1873 51.15V51.375C77.2373 51.05 76.2623 50.825 74.9123 50.825C71.7373 50.825 69.5123 52.175 69.5123 55.1V55.15C69.5123 57.8 71.5873 59.25 74.1123 59.25ZM75.2623 56.625C74.0373 56.625 73.1873 56.025 73.1873 55V54.95C73.1873 53.75 74.1873 53.1 75.8123 53.1C76.7373 53.1 77.5873 53.3 78.2373 53.6V54.275C78.2373 55.65 77.0373 56.625 75.2623 56.625Z" fill="black"/>
</svg>
