<svg width="100" height="100" viewBox="0 0 100 100" fill="none" xmlns="http://www.w3.org/2000/svg">
<path d="M18.1 59H21.95V53.4H24.975L28.725 59H33.225L28.95 52.75C31.175 51.925 32.7 50.15 32.7 47.325V47.275C32.7 45.625 32.175 44.25 31.2 43.275C30.05 42.125 28.325 41.5 26.1 41.5H18.1V59ZM21.95 50V44.975H25.775C27.65 44.975 28.8 45.825 28.8 47.475V47.525C28.8 49 27.725 50 25.85 50H21.95ZM40.2164 59.25C42.1414 59.25 43.2664 58.225 44.1414 57.1V59H47.9414V45.6H44.1414V53.075C44.1414 54.875 43.2164 55.8 41.7664 55.8C40.3164 55.8 39.4664 54.875 39.4664 53.075V45.6H35.6664V54.275C35.6664 57.35 37.3414 59.25 40.2164 59.25ZM56.0426 59.25C58.9426 59.25 61.1676 57.9 61.1676 54.925V54.875C61.1676 52.425 58.9926 51.525 57.1176 50.9C55.6676 50.4 54.3926 50.05 54.3926 49.3V49.25C54.3926 48.725 54.8676 48.325 55.7926 48.325C56.7676 48.325 58.0926 48.8 59.4176 49.575L60.8676 46.95C59.4176 45.975 57.5676 45.4 55.8676 45.4C53.1676 45.4 50.9676 46.925 50.9676 49.65V49.7C50.9676 52.3 53.0926 53.175 54.9676 53.725C56.4426 54.175 57.7426 54.45 57.7426 55.275V55.325C57.7426 55.925 57.2426 56.325 56.1426 56.325C54.8926 56.325 53.3676 55.775 51.9176 54.725L50.2926 57.225C52.0676 58.625 54.1676 59.25 56.0426 59.25ZM68.1723 59.225C69.4473 59.225 70.3723 58.925 71.1723 58.45V55.4C70.6223 55.7 69.9973 55.875 69.2973 55.875C68.4473 55.875 68.0723 55.45 68.0723 54.575V48.85H71.2223V45.6H68.0723V42.175H64.2723V45.6H62.6723V48.85H64.2723V55.2C64.2723 58.3 65.8473 59.225 68.1723 59.225Z" fill="black"/>
</svg>
