<svg width="100" height="100" viewBox="0 0 100 100" fill="none" xmlns="http://www.w3.org/2000/svg">
<path d="M6.1 59H9.95V53.75H12.875C16.8 53.75 19.95 51.65 19.95 47.6V47.55C19.95 43.975 17.425 41.5 13.25 41.5H6.1V59ZM9.95 50.325V44.975H12.925C14.85 44.975 16.05 45.9 16.05 47.625V47.675C16.05 49.175 14.925 50.325 13 50.325H9.95ZM28.5184 54.725L25.4684 45.6H21.4434L26.6934 59.05C26.3684 59.725 26.0184 59.925 25.3684 59.925C24.8684 59.925 24.2434 59.7 23.7434 59.4L22.4684 62.15C23.4434 62.725 24.4684 63.075 25.8434 63.075C28.1184 63.075 29.2184 62.05 30.2434 59.325L35.3934 45.6H31.4434L28.5184 54.725ZM42.1586 59.225C43.4336 59.225 44.3586 58.925 45.1586 58.45V55.4C44.6086 55.7 43.9836 55.875 43.2836 55.875C42.4336 55.875 42.0586 55.45 42.0586 54.575V48.85H45.2086V45.6H42.0586V42.175H38.2586V45.6H36.6586V48.85H38.2586V55.2C38.2586 58.3 39.8336 59.225 42.1586 59.225ZM48.0096 59H51.8096V51.525C51.8096 49.725 52.7346 48.8 54.1846 48.8C55.6346 48.8 56.4846 49.725 56.4846 51.525V59H60.2846V50.325C60.2846 47.25 58.6096 45.35 55.7346 45.35C53.8096 45.35 52.6846 46.375 51.8096 47.5V40.75H48.0096V59ZM70.1607 59.3C74.3357 59.3 77.4357 56.175 77.4357 52.325V52.275C77.4357 48.425 74.3607 45.35 70.2107 45.35C66.0357 45.35 62.9357 48.475 62.9357 52.325V52.375C62.9357 56.225 66.0107 59.3 70.1607 59.3ZM70.2107 56.025C68.1107 56.025 66.6857 54.3 66.6857 52.325V52.275C66.6857 50.3 67.9857 48.625 70.1607 48.625C72.2607 48.625 73.6857 50.35 73.6857 52.325V52.375C73.6857 54.35 72.3857 56.025 70.2107 56.025ZM80.1873 59H83.9873V51.525C83.9873 49.725 84.9123 48.8 86.3623 48.8C87.8123 48.8 88.6623 49.725 88.6623 51.525V59H92.4623V50.325C92.4623 47.25 90.7873 45.35 87.9123 45.35C85.9873 45.35 84.8623 46.375 83.9873 47.5V45.6H80.1873V59Z" fill="black"/>
</svg>
