<svg xmlns="http://www.w3.org/2000/svg" viewBox="0 0 79.767 79.767">
  <path d="M17.829,4.3l4.3-4.3,4.3,4.3-4.3,4.3Zm-8.939.05,4.3-4.3,4.3,4.3-4.3,4.3Zm17.822-.043,4.3-4.3,4.3,4.3-4.3,4.3Zm8.883.007,4.3-4.3,4.3,4.3-4.3,4.3ZM.007,4.342l4.3-4.3,4.3,4.3-4.3,4.3Zm53.354-.015,4.3-4.3,4.3,4.3-4.3,4.3ZM44.478,4.32l4.3-4.3,4.3,4.3-4.3,4.3Zm17.765.014,4.3-4.3,4.3,4.3-4.3,4.3Zm8.883.008,4.3-4.3,4.3,4.3-4.3,4.3Zm-53.3,8.84,4.3-4.3,4.3,4.3-4.3,4.3Zm-8.939.05,4.3-4.3,4.3,4.3-4.3,4.3Zm17.822-.043L31,8.89l4.3,4.3-4.3,4.3Zm8.883.007,4.3-4.3,4.3,4.3-4.3,4.3ZM0,13.225l4.3-4.3,4.3,4.3-4.3,4.3Zm53.354-.015,4.3-4.3,4.3,4.3-4.3,4.3ZM44.471,13.2l4.3-4.3,4.3,4.3-4.3,4.3Zm17.765.014,4.3-4.3,4.3,4.3-4.3,4.3Zm8.883.007,4.3-4.3,4.3,4.3-4.3,4.3Zm-53.247,8.9,4.3-4.3,4.3,4.3-4.3,4.3Zm-8.939.05,4.3-4.3,4.3,4.3-4.3,4.3Zm17.822-.042,4.3-4.3,4.3,4.3-4.3,4.3Zm8.882.007,4.3-4.3,4.3,4.3-4.3,4.3ZM.049,22.164l4.3-4.3,4.3,4.3-4.3,4.3ZM53.4,22.15l4.3-4.3,4.3,4.3-4.3,4.3Zm-8.883-.007,4.3-4.3,4.3,4.3-4.3,4.3Zm17.766.014,4.3-4.3,4.3,4.3-4.3,4.3Zm8.882.007,4.3-4.3,4.3,4.3-4.3,4.3ZM17.865,31l4.3-4.3,4.3,4.3-4.3,4.3Zm-8.94.05,4.3-4.3,4.3,4.3-4.3,4.3Zm17.822-.043,4.3-4.3,4.3,4.3-4.3,4.3Zm8.883.007,4.3-4.3,4.3,4.3-4.3,4.3ZM.042,31.047l4.3-4.3,4.3,4.3-4.3,4.3ZM53.4,31.032l4.3-4.3,4.3,4.3-4.3,4.3Zm-8.883-.007,4.3-4.3,4.3,4.3-4.3,4.3Zm17.766.014,4.3-4.3,4.3,4.3-4.3,4.3Zm8.882.008,4.3-4.3,4.3,4.3-4.3,4.3Zm-53.3,8.84,4.3-4.3,4.3,4.3-4.3,4.3Zm-8.94.05,4.3-4.3,4.3,4.3-4.3,4.3Zm17.822-.043,4.3-4.3,4.3,4.3-4.3,4.3Zm8.883.007,4.3-4.3,4.3,4.3-4.3,4.3ZM.035,39.93l4.3-4.3,4.3,4.3-4.3,4.3Zm53.354-.015,4.3-4.3,4.3,4.3-4.3,4.3Zm-8.883-.007,4.3-4.3,4.3,4.3-4.3,4.3Zm17.766.014,4.3-4.3,4.3,4.3-4.3,4.3Zm8.882.007,4.3-4.3,4.3,4.3-4.3,4.3Zm-53.3,8.841,4.3-4.3,4.3,4.3-4.3,4.3Zm-8.94.05,4.3-4.3,4.3,4.3-4.3,4.3Zm17.822-.043,4.3-4.3,4.3,4.3-4.3,4.3Zm8.883.007,4.3-4.3,4.3,4.3-4.3,4.3ZM.028,48.813l4.3-4.3,4.3,4.3-4.3,4.3ZM53.382,48.8l4.3-4.3,4.3,4.3-4.3,4.3ZM44.5,48.791l4.3-4.3,4.3,4.3-4.3,4.3Zm17.766.014,4.3-4.3,4.3,4.3-4.3,4.3Zm8.882.007,4.3-4.3,4.3,4.3-4.3,4.3Zm-53.3,8.841,4.3-4.3,4.3,4.3-4.3,4.3ZM8.9,57.7l4.3-4.3,4.3,4.3L13.2,62Zm17.822-.042,4.3-4.3,4.3,4.3-4.3,4.3Zm8.883.007,4.3-4.3,4.3,4.3-4.3,4.3ZM.021,57.7l4.3-4.3,4.3,4.3L4.32,62Zm53.354-.014,4.3-4.3,4.3,4.3-4.3,4.3Zm-8.883-.007,4.3-4.3,4.3,4.3-4.3,4.3Zm17.766.014,4.3-4.3,4.3,4.3-4.3,4.3Zm8.882.007,4.3-4.3,4.3,4.3-4.3,4.3Zm-53.3,8.841,4.3-4.3,4.3,4.3-4.3,4.3ZM8.9,66.585l4.3-4.3,4.3,4.3-4.3,4.3Zm17.822-.042,4.3-4.3,4.3,4.3-4.3,4.3Zm8.883.007,4.3-4.3,4.3,4.3-4.3,4.3ZM.014,66.578l4.3-4.3,4.3,4.3-4.3,4.3Zm53.354-.014,4.3-4.3,4.3,4.3-4.3,4.3Zm-8.883-.007,4.3-4.3,4.3,4.3-4.3,4.3Zm17.765.014,4.3-4.3,4.3,4.3-4.3,4.3Zm8.883.007,4.3-4.3,4.3,4.3-4.3,4.3Zm-53.3,8.841,4.3-4.3,4.3,4.3-4.3,4.3Zm-8.939.049,4.3-4.3,4.3,4.3-4.3,4.3Zm17.822-.042,4.3-4.3,4.3,4.3-4.3,4.3Zm8.883.007,4.3-4.3,4.3,4.3-4.3,4.3ZM.007,75.461l4.3-4.3,4.3,4.3-4.3,4.3Zm53.354-.014,4.3-4.3,4.3,4.3-4.3,4.3Zm-8.883-.007,4.3-4.3,4.3,4.3-4.3,4.3Zm17.765.014,4.3-4.3,4.3,4.3-4.3,4.3Zm8.883.007,4.3-4.3,4.3,4.3-4.3,4.3Z"/>
</svg>
