<svg xmlns="http://www.w3.org/2000/svg" viewBox="0 0 79.746 79.76">
  <path d="M79.711,39.83l-4.3,4.3-4.3-4.3,4.3-4.3ZM79.7,57.6l-4.3,4.3-4.3-4.3,4.3-4.3Zm.007-8.882-4.3,4.3-4.3-4.3,4.3-4.3Zm.042,17.822-4.3,4.3-4.3-4.3,4.3-4.3Zm-.007,8.882-4.3,4.3-4.3-4.3,4.3-4.3ZM70.814,57.589l-4.3,4.3-4.3-4.3,4.3-4.3Zm.007-8.883-4.3,4.3-4.3-4.3,4.3-4.3Zm.042,17.823-4.3,4.3-4.3-4.3,4.3-4.3Zm-.007,8.882-4.3,4.3-4.3-4.3,4.3-4.3ZM61.874,57.639l-4.3,4.3-4.3-4.3,4.3-4.3Zm.05,8.939-4.3,4.3-4.3-4.3,4.3-4.3Zm-.007,8.883-4.3,4.3-4.3-4.3,4.3-4.3Zm-8.876-8.89-4.3,4.3-4.3-4.3,4.3-4.3Zm-.007,8.883-4.3,4.3-4.3-4.3,4.3-4.3Zm-8.883-.008-4.3,4.3-4.3-4.3,4.3-4.3ZM35.268,4.32l-4.3,4.3-4.3-4.3,4.3-4.3ZM26.378,13.2l-4.3,4.3-4.3-4.3,4.3-4.3Zm.007-8.883-4.3,4.3-4.3-4.3,4.3-4.3Zm-8.9,17.759-4.3,4.3-4.3-4.3,4.3-4.3Zm.007-8.883-4.3,4.3-4.3-4.3,4.3-4.3ZM17.5,4.306l-4.3,4.3-4.3-4.3,4.3-4.3Zm-8.9,17.759-4.3,4.3-4.3-4.3,4.3-4.3Zm.007-8.883-4.3,4.3-4.3-4.3,4.3-4.3ZM8.6,30.948l-4.3,4.3L0,30.948l4.3-4.3ZM8.62,4.3,4.32,8.6.021,4.3,4.32,0Z"/>
</svg>
