<svg id="Layer_1" data-name="Layer 1" xmlns="http://www.w3.org/2000/svg" viewBox="0 0 100 100"><path d="M98.33,41.33c0,19.06,6.07,41.32-8.65,41.32S45,60.39,45,41.33,70.23,6.83,85,6.83,98.33,22.28,98.33,41.33Z"/><path d="M60.56,58.43a1.5,1.5,0,1,0-1.5-1.5A1.5,1.5,0,0,0,60.56,58.43Z"/><path d="M55.05,66.3a1.5,1.5,0,1,0-1.5-1.5A1.5,1.5,0,0,0,55.05,66.3Z"/><path d="M42.45,60.53A1.5,1.5,0,1,0,41,59a1.5,1.5,0,0,0,1.5,1.5Z"/><path d="M40.88,69.45a1.5,1.5,0,1,0-1.5-1.5A1.5,1.5,0,0,0,40.88,69.45Z"/><path d="M47.18,63.15a1.5,1.5,0,1,0-1.5-1.5A1.5,1.5,0,0,0,47.18,63.15Z"/><path d="M30.12,57.9a1.5,1.5,0,0,0,0-3h0a1.5,1.5,0,1,0,0,3Z"/><path d="M39,48.72a1.5,1.5,0,1,0-1.5-1.5A1.5,1.5,0,0,0,39,48.72Z"/><path d="M38,54.75a1.5,1.5,0,1,0-1.5-1.5,1.5,1.5,0,0,0,1.5,1.5Z"/><path d="M46.13,54.75a1.5,1.5,0,1,0-1.5-1.5A1.5,1.5,0,0,0,46.13,54.75Z"/><path d="M43,43a1.5,1.5,0,1,0-1.5-1.5A1.5,1.5,0,0,0,43,43Z"/><path d="M50.32,43.47a1.5,1.5,0,1,0-1.5-1.5,1.5,1.5,0,0,0,1.5,1.5Z"/><path d="M59.77,52.39a1.5,1.5,0,1,0-1.5-1.5A1.5,1.5,0,0,0,59.77,52.39Z"/><path d="M61.87,40.33a1.5,1.5,0,1,0-1.5-1.5,1.5,1.5,0,0,0,1.5,1.5Z"/><path d="M32.22,46.36a1.5,1.5,0,1,0-1.5-1.5A1.5,1.5,0,0,0,32.22,46.36Z"/></svg>