<svg id="Layer_1" data-name="Layer 1" xmlns="http://www.w3.org/2000/svg" viewBox="0 0 100 100"><path d="M14.76,50.46c2.34-1.83,5-4,8-4.21,3.29-.26,3.85.35,4.88,3.31S28.41,53.28,27,56c-2.1,4.08-4.71,7.69-6.11,12.13-1.62,5.14-4.38,17,2.47,19.59,6.54,2.52,10.93-4.45,11.75-9.84.68-4.45-.34-10.08,2.32-14l2.42-2.27,5.77,1.09c1,.81.8,3.44.84,4.54a54.92,54.92,0,0,0,.17,6.15c.87,5.88,6.33,10.54,12.42,9.77,2.06-.27,4.65-1.28,5.41-3.44,1-2.84-1.51-4.4-3.21-6.14-3.46-3.58-6.25-9.2-4.4-14.2,4.09-11,11.81,3,14.6,6.69C76.09,72.16,83,80.88,90.53,83.47c7,2.4,10.27-5.13,7.27-10.63-2.41-4.41-6.64-8.1-10-11.82l-3-3.39c-1.82-2.09-3.18-2.3-1.4-5.09s2-1.64,4.6-.41l5,2.34a1.5,1.5,0,0,0,1.8-2.34c-2-2.5-4.52-2.94-7.1-4.59-3.23-2.07-3.43-5,.18-5.78,1.22-.27,2.61,0,3.86-.2,4-.58,6.68-3.34,6-7.58-.83-4.78-5.07-6.9-9.5-7.47-3.63-.46-7.44-.09-11.09,0-2.23,0-5.14.68-6.09-2.53-.55-1.86,1.25-4.8,2.11-6.27a1.5,1.5,0,0,0-.54-2C68.25,13.22,60.43,9.8,55.39,12.2S51.27,21.64,51.84,26c.35,2.73.85,5.63.23,8.38s-3.35,6.34-6.64,5.34c-4-1.2-3.2-8.25-3.67-11.48-.79-5.39-2.92-10.63-8.72-12-3.75-.87-7.77.52-8.77,4.51-.65,2.62.31,5.08,1.58,7.35,1,1.8,3.23,4,3.5,6.08q-1,7.07-2.86,3.52a4.85,4.85,0,0,0-.64-.72C16.53,27.48,5.51,39.92.79,47.43A1.54,1.54,0,0,0,1,49.24a8.11,8.11,0,0,0,13.3-.93c1-1.64-1.57-3.14-2.57-1.51a5.18,5.18,0,0,1-8.6.33l.23,1.81c2.41-3.83,4.92-8,8.9-10.41,4.32-2.61,10.52-2.21,12.83,2.81a1.54,1.54,0,0,0,1.29.74,5.53,5.53,0,0,0,5.72-3.72c1.38-3.45-.55-6.71-2.34-9.58s-1.85-2.32-1.13-6.18c.66-3.49.91-4.2,4.18-3.29,3.75,1.05,5.11,4.7,5.82,8.15.84,4.05.06,9.26,2.64,12.78,3.92,5.35,11.28,1.66,13.21-3.47C56,32.6,55,28.22,54.54,24a13,13,0,0,1-.08-4.66,6.59,6.59,0,0,1,7.66-4.4,28.17,28.17,0,0,1,9,3.33l-.53-2c-2,3.37-4.23,8.82-.65,11.94,5.37,4.68,22.67-3.79,24.52,5.69,1.5,7.66-10.73,2.36-12.52,8.71-1.89,6.69,7.85,8,10.8,11.71L94.54,52c-3.75-1.75-15.41-9.43-16.28-.47-.3,3.09,2,5.48,3.86,7.63,4,4.47,8.57,8.76,12,13.64,1,1.37,3.63,5.2,1.49,6.88-1.43,1.13-5,.55-6.44-.15-2.38-1.17-4.87-3.85-6.78-5.65A80,80,0,0,1,70.56,59.67C67.18,54.55,61.49,48.54,56,55c-4.6,5.36-2.62,13.34,1.27,18.49.74,1,3.55,2.82,3.82,3.9,1.42,5.65-8,1.54-9.15.4C48,74,50.29,68.44,49.17,63.73,47.61,57.2,40.25,56.33,36,61c-2.34,2.56-2.94,6.16-3.23,9.49-.23,2.7-.07,5.46-.7,8.12-1.52,6.42-8.63,9.62-9.78.11C21.4,72,25.11,65,28.41,59.49c1.95-3.23,4.35-7.38,3-11.31-3.17-9.06-13.86-3.63-18.74.18-1.51,1.18.61,3.27,2.11,2.1Z"/><path d="M66.76,34.19a1.5,1.5,0,1,0-1.5-1.5,1.5,1.5,0,0,0,1.5,1.5Z"/><path d="M88.85,13.57a1.5,1.5,0,1,0-1.5-1.5A1.5,1.5,0,0,0,88.85,13.57Z"/><path d="M85.85,25.24a1.5,1.5,0,1,0-1.5-1.5,1.5,1.5,0,0,0,1.5,1.5Z"/><path d="M77.07,34.19a1.5,1.5,0,1,0-1.5-1.5A1.5,1.5,0,0,0,77.07,34.19Z"/><path d="M77.07,17.25a1.5,1.5,0,1,0-1.5-1.5A1.5,1.5,0,0,0,77.07,17.25Z"/><path d="M55,17.25a1.5,1.5,0,1,0-1.5-1.5A1.5,1.5,0,0,0,55,17.25Z"/><path d="M55.81,35.05a1.5,1.5,0,1,0-1.5-1.5A1.5,1.5,0,0,0,55.81,35.05Z"/><path d="M67.5,37.13a1.5,1.5,0,1,0-1.5-1.5A1.5,1.5,0,0,0,67.5,37.13Z"/><path d="M66,53.32a1.5,1.5,0,1,0-1.5-1.5A1.5,1.5,0,0,0,66,53.32Z"/><path d="M76.33,57a1.5,1.5,0,1,0-1.5-1.5,1.5,1.5,0,0,0,1.5,1.5Z"/><path d="M75.6,65.1a1.5,1.5,0,1,0-1.5-1.5A1.5,1.5,0,0,0,75.6,65.1Z"/><path d="M91.06,63.63a1.5,1.5,0,1,0-1.5-1.5A1.5,1.5,0,0,0,91.06,63.63Z"/><path d="M94,46.51a1.5,1.5,0,1,0-1.5-1.5A1.5,1.5,0,0,0,94,46.51Z"/><path d="M95.47,51.12a1.5,1.5,0,1,0-1.5-1.5,1.5,1.5,0,0,0,1.5,1.5Z"/><path d="M86.64,56.32a1.5,1.5,0,1,0-1.5-1.5A1.5,1.5,0,0,0,86.64,56.32Z"/><path d="M96.18,28.3a1.5,1.5,0,1,0-1.5-1.5,1.5,1.5,0,0,0,1.5,1.5Z"/><path d="M97.68,5.48A1.5,1.5,0,1,0,96.18,4,1.5,1.5,0,0,0,97.68,5.48Z"/><path d="M44.68,8.42a1.5,1.5,0,0,0,0-3h0a1.5,1.5,0,0,0,0,3Z"/><path d="M63.82,7.69a1.5,1.5,0,1,0-1.5-1.5A1.5,1.5,0,0,0,63.82,7.69Z"/><path d="M72.65,8.42a1.5,1.5,0,1,0-1.5-1.5A1.5,1.5,0,0,0,72.65,8.42Z"/><path d="M86.64,3.27a1.5,1.5,0,1,0-1.5-1.5,1.5,1.5,0,0,0,1.5,1.5Z"/></svg>