<svg id="Layer_1" data-name="Layer 1" xmlns="http://www.w3.org/2000/svg" viewBox="0 0 100 100"><path d="M14.81,93.85l3.41-3.67c1.56-1.69-1-4.22-2.53-2.53l-3.41,3.67C10.72,93,13.28,95.53,14.81,93.85Z"/><path d="M14.55,86.65A27.91,27.91,0,0,1,18,81.8c1.52-1.72-1-4.25-2.53-2.53a31.89,31.89,0,0,0-4,5.58C10.34,86.85,13.47,88.66,14.55,86.65Z"/><path d="M26.08,84.4l6.06-5a1.79,1.79,0,0,0,0-2.52,1.82,1.82,0,0,0-2.53,0l-6.05,5a1.79,1.79,0,0,0,0,2.52A1.81,1.81,0,0,0,26.08,84.4Z"/><path d="M24,78.1a14.33,14.33,0,0,0,3.16-3.52,1.79,1.79,0,0,0-3.09-1.8,11.31,11.31,0,0,1-2.6,2.79,1.8,1.8,0,0,0,0,2.53A1.84,1.84,0,0,0,24,78.1Z"/><path d="M20.31,74.69l3.41-4.2a1.84,1.84,0,0,0,0-2.53,1.8,1.8,0,0,0-2.53,0l-3.41,4.2a1.84,1.84,0,0,0,0,2.53A1.8,1.8,0,0,0,20.31,74.69Z"/><path d="M13.64,74.93l1.11-3.39a1.79,1.79,0,1,0-3.44-1h0L10.19,74a1.81,1.81,0,0,0,1.25,2.2A1.83,1.83,0,0,0,13.64,75Z"/><path d="M28.63,93.64a18.88,18.88,0,0,0,3.67-3,1.78,1.78,0,1,0-2.52-2.52h0a16.12,16.12,0,0,1-3,2.46A1.82,1.82,0,0,0,26.19,93,1.8,1.8,0,0,0,28.63,93.64Z"/><path d="M22.83,92.55a13,13,0,0,0,3.74-3.83,1.78,1.78,0,0,0-3.08-1.8h0A9,9,0,0,1,21,89.47a1.82,1.82,0,0,0-.64,2.44,1.79,1.79,0,0,0,2.44.64Z"/><path d="M34.35,72.84q3.63-2.69,7-5.71c1.7-1.55-.83-4.07-2.53-2.53a79,79,0,0,1-6.26,5.16c-1.83,1.35-.05,4.45,1.8,3.08Z"/><path d="M32.83,66.76l4.25-5.2a1.84,1.84,0,0,0,0-2.53,1.79,1.79,0,0,0-2.52,0l-4.26,5.2a1.84,1.84,0,0,0,0,2.53A1.8,1.8,0,0,0,32.83,66.76Z"/><path d="M18.78,65.16l2.32-3.44a1.79,1.79,0,0,0-3.1-1.8h0l-2.3,3.44a1.79,1.79,0,0,0,.64,2.44A1.81,1.81,0,0,0,18.78,65.16Z"/><path d="M26,63.4a8.26,8.26,0,0,1,2.41-3.7c1.7-1.55-.83-4.08-2.53-2.53a12,12,0,0,0-3.32,5.28C21.87,64.65,25.32,65.59,26,63.4Z"/><path d="M39.73,85.6l.79-1a1.8,1.8,0,0,0,.18-1.38,1.85,1.85,0,0,0-.82-1.06A1.8,1.8,0,0,0,38.5,82l-.43.18a1.64,1.64,0,0,0-.64.64l-.78,1a1.78,1.78,0,0,0,2,2.62l.43-.18a1.78,1.78,0,0,0,.64-.64Z"/><path d="M36.48,81.53A18,18,0,0,0,40,78.35a1.83,1.83,0,0,0,0-2.52,1.8,1.8,0,0,0-2.53,0,15,15,0,0,1-2.78,2.62A1.85,1.85,0,0,0,34,80.89a1.81,1.81,0,0,0,2.45.64Z"/><path d="M44.86,82.3a23.91,23.91,0,0,0,5.35-4.2c1.59-1.67-.93-4.19-2.52-2.53a20.71,20.71,0,0,1-4.63,3.65,1.78,1.78,0,0,0,1.8,3.08Z"/><path d="M13.47,60.92A8.45,8.45,0,0,1,17,58.11a1.79,1.79,0,0,0,.64-2.44A1.83,1.83,0,0,0,15.22,55a11.83,11.83,0,0,0-4.83,4.09,1.78,1.78,0,1,0,3.08,1.8Z"/><path d="M7.27,65.85,2.89,70.64c-1.55,1.7,1,4.23,2.52,2.53l4.38-4.8C11.34,66.68,8.79,64.15,7.27,65.85Z"/><path d="M6.78,80.57,1.5,87.1C.07,88.87,2.58,91.42,4,89.63L9.31,83.1C10.74,81.33,8.23,78.78,6.78,80.57Z"/><path d="M65,85.45c.17-2.75,1.33-5,4.5-5.53a13.57,13.57,0,0,0,2.19.48,4.62,4.62,0,0,0,3-1.06,8.07,8.07,0,0,0,2.51-3.65c.35-.89.42-2,.85-2.82a2.54,2.54,0,0,1,2.18-2.15q1.81-2.77,3.55-.24c1.87.73,3,2.15,5.08.79a4.46,4.46,0,0,0,1.66-2.21c1.49-3.35,2.5-6.45,6.91-6.17,1.91.13,1.9-2.85,0-3a8.71,8.71,0,0,0-8.69,4.82c-.93,1.93-.15,3.61-3.77,2.89-.7-.14-1.55-1.15-2.28-1.38a4.88,4.88,0,0,0-4.2.57,8.36,8.36,0,0,0-3.11,4.55c-1,2.77-.36,5.09-5.13,5.68-.75.1-1.84-.62-2.75-.53-4.39.44-5.29,5.41-5.52,8.93-.12,1.91,2.85,1.9,3,0Z"/><path d="M94.59,31.7c0,13.05-17.34,24.8-34.1,24.8S19,30.84,19,17.8,60.25,1,77,1,94.59,18.66,94.59,31.7Z"/></svg>