<svg id="Layer_1" data-name="Layer 1" xmlns="http://www.w3.org/2000/svg" viewBox="0 0 100 100"><line x1="41.89" y1="57.32" x2="69.39" y2="28.45" fill="none"/><line x1="33.44" y1="39.89" x2="50" y2="10.97" fill="none"/><line x1="26.55" y1="57.32" x2="45.26" y2="83.82" fill="none"/><line x1="67.06" y1="71.26" x2="88.39" y2="37.58" fill="none"/><line x1="11.12" y1="12.69" x2="38.86" y2="37.58" fill="none" stroke="#000" stroke-miterlimit="10"/><line x1="60.11" y1="79.14" x2="84.67" y2="43.46" fill="none" stroke="#000" stroke-miterlimit="10"/><line x1="35.91" y1="67.91" x2="56.4" y2="57.32" fill="none" stroke="#000" stroke-miterlimit="10"/><line x1="55.43" y1="20.33" x2="72.39" y2="37.58" fill="none" stroke="#000" stroke-miterlimit="10" stroke-width="0.25"/><path d="M29.08,51.68c3.52-3.18,9.33-8,14.38-7.25,4.15.58,4.85,4.37,6.53,7.74,2.15,4.31,5.1,6.63,9.88,7.34,3,.45,6.37,0,9.27.94,6.23,2,4.66,9.08,2.06,13.46a20.19,20.19,0,0,1-8.66,7.86c-3.9,1.85-8.13,1.39-12.13,2.64-6.1,1.9-6.36,7.72-10.88,11.23-6,4.64-11.11-2.17-12.21-7.81-.66-3.35-.55-6.82-1.23-10.17a15.07,15.07,0,0,0-2.75-6.57c-2.09-2.59-5.43-3.08-7.65-5.44-3.27-3.47-4.55-10.64-3.52-15.2.72-3.22,2.85-6.51,6.2-7.53,4.27-1.31,8.75,2.14,7.56,6.71a1.49,1.49,0,0,0,2.87.79,8.72,8.72,0,0,0-9.46-10.75C12,40.53,8.53,48.28,8.94,54.88A25,25,0,0,0,12,65.58c2.23,3.8,6.44,4.28,9,7.51,5.4,6.76.84,17.28,7.36,23.89,4.58,4.66,10.83,4,14.71-1,2.71-3.5,4.09-7.69,8.83-9,4.12-1.11,8.15-.8,12.09-2.71C74.52,79.15,84.07,58.8,66.6,57c-5.07-.53-10.27.07-13.29-4.89-1.76-2.9-2.49-6.58-5-9-6.23-6-16.58,2.06-21.38,6.39-1.43,1.29.68,3.39,2.1,2.11Z"/><path d="M28.23,32.1c3.75-2,8.92-4.25,12.93-2.25,2.94,1.48,2.59,3.87,4,6.48,1.91,3.56,5.53,5.43,9.4,6.11,4.63.82,9.27-.91,13.83-.1,5.51,1,6.67,6.34,4,10.69-2,3.22-5.42,5.47-8.55,7.39-5.16,3.14-12.7,8.46-18.84,5.22-4.16-2.18-3.21-7.85-8.54-8.73a14.21,14.21,0,0,0-4.82.37c-5,.81-9.68-.07-11.1-5.77-2-7.73,4.46-14.72,8.79-20.33,1.17-1.52-1.42-3-2.57-1.5C20.93,37.29,11,51.43,22.41,59.18a9.59,9.59,0,0,0,5.8,1.68,22.18,22.18,0,0,0,3.44-.54c.86-.16,2.3-.73,3.14-.54,2,.45,3.54,2.69,4.62,4.13,2.55,3.43,5.06,5.64,9.68,5.68,5.83.06,11.45-3.68,16.22-6.6s9.77-6.52,11.18-12.08A9.35,9.35,0,0,0,73,40.77c-4.54-3-10.3-.81-15.27-1S48.9,37.73,47,33c-.78-2-1.17-4.25-2.9-5.69-4.51-3.75-13-.07-17.39,2.23-1.7.9-.19,3.47,1.5,2.57Z"/><path d="M39.13,8.7c-9.92-2.38-23-.37-25.69,11.28-.94,4.13-.11,8.7,3,11.72,4.25,4.1,10.79,3.95,15.91,6.33,4.85,2.26,9.55,5.78,15.07,3.38s8.34-8.13,14.36-10.12c4.23-1.39,9.85-3.07,9.49-8.64s-6.8-11.12-10.72-14.5C56.05,4.26,50.35-.09,44,.53,39,1,34.8,5,35,10.22a1.5,1.5,0,0,0,3,0C37.64.67,49.42,3.7,54.18,6.9c4.59,3.09,9.57,7.53,12.59,12.23,5.24,8.14-5.95,8.44-10.48,11.25-3.6,2.24-5.91,6.52-9.85,8.16-5.39,2.25-10.14-2.32-15-4.11C27.05,32.81,21,32.74,17.91,28.78,14.33,24.19,16.3,17.5,20.49,14c4.94-4.09,12-3.87,17.85-2.46,1.86.44,2.65-2.43.79-2.87Z"/></svg>