<svg id="Layer_1" data-name="Layer 1" xmlns="http://www.w3.org/2000/svg" viewBox="0 0 125.66 125.66"><path d="M15.13,62.48a27.13,27.13,0,0,1-4.22-5.61Q7.79,53,13.29,50.51l.76.8c1.75,1.3,2.49,3.47,4.71,4.26a6.37,6.37,0,0,0,5.55-.83c1.29-.73,2.46-2.55,3.9-2.84,4.28-.87,4.54,3.22,3.92,5.91-1.25,5.46-5.59,9.87.53,13.39,4.54,2.63,9.15,7.16,5.94,12.88-1.9,3.38-6.32,4.45-9.28,6.61a11,11,0,0,0-3.93,4.83C24,98.73,23.84,107.28,18.55,102,13.86,97.36,20.81,88.24,15,84.27,11.78,82.11,7.86,82.42,5.31,79c-2.39-3.21-2.2-8.91,3.53-8.89,1.2,0,2.38,1,3.67,1,5.1,0,4.17-5.46,2.37-8.43-1.19-2-4.28-.17-3.08,1.8.43.72.65,2.25-.53,2.71a23.64,23.64,0,0,0-2.71-.74A6.51,6.51,0,0,0,5.27,67,9,9,0,0,0,.71,72c-2.36,6.15,2.81,11.55,8.12,13.71,2,.8,4.26,1.12,4.9,3.6.47,1.8-.31,4.77-.33,6.64,0,3.06.26,6.33,2.3,8.78,3.41,4.09,9.19,3.42,11.29-1.42,1.61-3.71.81-7.3,4.6-10,2.79-2,6.12-3,8.51-5.51,4.17-4.38,3.74-11.24,0-15.7-2.76-3.25-7.57-3.71-6.16-8.93,1-3.53,2.83-6.31,1.74-10.08-1.58-5.4-6.44-6.33-10.71-3.37-2.32,1.61-4.18,3-6.88.72-1.21-1-1.85-2.48-3.22-3.37a5.34,5.34,0,0,0-6.34.06C2,51.92,8.93,61,12.6,65,14.17,66.69,16.66,64.16,15.13,62.48Z"/><path d="M58.54,59.57a1.79,1.79,0,1,0-1.65-1.92,1.22,1.22,0,0,0,0,.27A1.77,1.77,0,0,0,58.54,59.57Z"/><path d="M53.4,65.9A1.79,1.79,0,1,0,51.75,64a1.22,1.22,0,0,0,0,.27A1.77,1.77,0,0,0,53.4,65.9Z"/><path d="M59.33,67.88A1.79,1.79,0,1,0,57.65,66a2.09,2.09,0,0,0,0,.25A1.77,1.77,0,0,0,59.33,67.88Z"/><path d="M58.14,80.14a1.79,1.79,0,1,0-1.65-1.92,1.22,1.22,0,0,0,0,.27A1.77,1.77,0,0,0,58.14,80.14Z"/><path d="M47.86,75.79a1.79,1.79,0,1,0-1.66-1.65A1.79,1.79,0,0,0,47.86,75.79Z"/><path d="M54.19,75.39a1.79,1.79,0,1,0-1.65-1.92,1.22,1.22,0,0,0,0,.27A1.77,1.77,0,0,0,54.19,75.39Z"/><path d="M43.91,68.67A1.79,1.79,0,1,0,42.25,67,1.79,1.79,0,0,0,43.91,68.67Z"/><path d="M52.21,58.78a1.79,1.79,0,1,0-1.65-1.92,1.22,1.22,0,0,0,0,.27A1.77,1.77,0,0,0,52.21,58.78Z"/><path d="M42.32,58.78a1.79,1.79,0,1,0-1.66-1.65A1.79,1.79,0,0,0,42.32,58.78Z"/><path d="M46.66,61.16a1.79,1.79,0,1,0-1.79-1.79,1.79,1.79,0,0,0,1.79,1.79Z"/><path d="M48.66,48.1A1.79,1.79,0,1,0,47,46.45,1.79,1.79,0,0,0,48.66,48.1Z"/><path d="M54.19,50.87A1.79,1.79,0,1,0,52.54,49a1.22,1.22,0,0,0,0,.27A1.77,1.77,0,0,0,54.19,50.87Z"/><path d="M43.91,53.25a1.79,1.79,0,1,0-1.79-1.79,1.79,1.79,0,0,0,1.79,1.79Z"/><path d="M37.6,30.4c.13-1.62,0-3.62.86-5,.22-1.62,1.33-2.31,3.36-2.06,1.34-1.25,2.51-1.43,3.53-.52,1.78.63,3,2.54,4.85,3.21a4.45,4.45,0,0,0,3.66,0c1.16-.61,1.14-1.79,2-2.52s3.55-1.7,4.36-1.18c.42.27.8,1.53,1.15,2a6.91,6.91,0,0,0,3.23,2.43A5.21,5.21,0,0,0,71.23,24c1-2.06-2.08-3.87-3.09-1.8-2,4-5.35-2.78-6.24-3.58a5,5,0,0,0-4.74-1.17,6.13,6.13,0,0,0-3.25,2.21c-2.22,2.8-3.18,2.47-6.18.49C39.26,14.51,34.66,22.58,34,30.4,33.85,32.69,37.42,32.68,37.6,30.4Z"/><path d="M67.8,40.07c.29-1.73,3-3.28,4.81-2.9.38.08,1.5,1.47,2,1.77a5.25,5.25,0,0,0,2.76.94c3.77.08,3.17-3,4.68-5.39,2.86-4.58,4.8.53,8.41.49,2.9,0,4.65-2.2,5.3-4.78.56-2.23-2.89-3.18-3.45-.95l-4.18.5A5.69,5.69,0,0,0,87.5,29c-.33-.15-.78-.74-1.13-.94a4.33,4.33,0,0,0-3-.57c-4.23.82-3.34,6.38-6.17,7.45-2.12.81-2.34-1.14-4.18-2.16a5.11,5.11,0,0,0-3.59-.56c-3.3.71-4.55,4-5.06,6.9-.38,2.25,3.06,3.22,3.45,1Z"/><path d="M121.59,92.36c0,13-10.81,7.69-27.58,7.69S71.66,81.3,71.66,68.26,73,37.26,117,49.87C133.15,54.48,121.59,79.32,121.59,92.36Z"/></svg>