<svg viewBox="0 0 69.91 85.1" xmlns="http://www.w3.org/2000/svg"><path d="m53.95 2.85c4.36 1.9 7.74 4.57 10.15 7.99 2.41 3.43 3.62 7.33 3.62 11.7 0 3.72-.87 7.04-2.61 9.94s-4.17 5.14-7.3 6.75c-3.12 1.6-6.68 2.4-10.69 2.4v-1.94c4.46 0 8.4.92 11.85 2.77 3.44 1.85 6.13 4.43 8.05 7.75s2.89 7.09 2.89 11.3c0 4.58-1.27 8.65-3.8 12.22s-6.09 6.35-10.67 8.36c-4.58 2-9.81 3.01-15.68 3.01h-39.76v-85.1h39.02c5.59 0 10.57.95 14.92 2.85zm-13.19 30.46c1.6-.77 2.85-1.87 3.74-3.31s1.34-3.11 1.34-5.02-.45-3.4-1.34-4.74-2.14-2.37-3.74-3.1-3.43-1.09-5.5-1.09h-13.98v18.42h13.98c2.07 0 3.9-.39 5.5-1.15zm-19.48 35.74h14.71c2.31 0 4.33-.38 6.08-1.12 1.74-.75 3.1-1.83 4.07-3.23.97-1.39 1.46-3.05 1.46-4.95s-.48-3.6-1.46-5.08-2.34-2.62-4.1-3.43c-1.77-.81-3.78-1.22-6.05-1.22h-14.71v19.02z" /></svg>