<svg viewBox="0 0 89.23 88.02" xmlns="http://www.w3.org/2000/svg"><path d="m21.88 82.27c-6.81-3.83-12.16-9.1-16.05-15.8-3.89-6.71-5.83-14.19-5.83-22.46s1.94-15.75 5.84-22.46c3.89-6.71 9.24-11.98 16.05-15.8 6.8-3.84 14.4-5.75 22.79-5.75s15.97 1.91 22.76 5.74 12.11 9.1 15.98 15.8c3.87 6.71 5.81 14.19 5.81 22.46s-1.93 15.76-5.81 22.46c-3.87 6.71-9.2 11.98-15.98 15.8-6.79 3.83-14.37 5.74-22.76 5.74s-15.99-1.91-22.79-5.74zm34.28-16.41c3.36-2.13 5.99-5.1 7.88-8.9 1.88-3.81 2.82-8.13 2.82-12.95s-.94-9.14-2.82-12.95-4.51-6.78-7.88-8.9-7.19-3.19-11.49-3.19-8.14 1.06-11.52 3.19-6.02 5.1-7.93 8.9c-1.91 3.81-2.86 8.13-2.86 12.95s.95 9.14 2.86 12.95c1.9 3.81 4.55 6.78 7.93 8.9s7.22 3.19 11.52 3.19 8.12-1.06 11.49-3.19z" /></svg>