<svg viewBox="0 0 87.65 88.02" xmlns="http://www.w3.org/2000/svg"><path d="m21.88 82.27c-6.81-3.83-12.16-9.1-16.05-15.8-3.89-6.71-5.83-14.19-5.83-22.46s1.94-15.75 5.84-22.46c3.89-6.71 9.24-11.98 16.05-15.8 6.8-3.84 14.4-5.75 22.79-5.75 7.05 0 13.53 1.3 19.45 3.89 5.92 2.6 10.85 6.21 14.8 10.85s6.57 9.96 7.87 15.95h-23.04c-1.05-2.23-2.51-4.16-4.38-5.8-1.86-1.64-4.05-2.91-6.56-3.8s-5.25-1.34-8.2-1.34c-4.34 0-8.22 1.03-11.64 3.1s-6.09 4.94-7.99 8.6-2.85 7.85-2.85 12.55.95 8.89 2.85 12.55 4.57 6.53 7.99 8.6c3.43 2.06 7.31 3.1 11.64 3.1 4.09 0 7.78-.67 11.06-2 3.28-1.34 5.9-3.22 7.84-5.65s3.04-5.23 3.28-8.39l.12 3.83h-17.99v-16.29h38.72v7.11c0 7.74-1.87 14.74-5.62 21s-8.9 11.18-15.44 14.77-13.85 5.38-21.91 5.38-15.99-1.91-22.79-5.74z" /></svg>