<svg viewBox="0 0 66.8 88.02" xmlns="http://www.w3.org/2000/svg"><path d="m16.26 84.55c-5.01-2.31-8.94-5.53-11.79-9.66-2.86-4.14-4.35-8.9-4.47-14.29h21.76c.04 1.83.56 3.43 1.58 4.83s2.42 2.48 4.22 3.25c1.81.77 3.86 1.16 6.17 1.16 2.15 0 4.03-.34 5.65-1s2.88-1.6 3.77-2.79 1.34-2.56 1.34-4.11c0-1.86-.58-3.44-1.76-4.74s-2.78-2.17-4.8-2.61l-15.8-3.04c-4.01-.77-7.53-2.28-10.58-4.53-3.04-2.25-5.4-5.08-7.08-8.48s-2.52-7.21-2.52-11.43c0-5.26 1.33-9.96 3.98-14.07 2.65-4.12 6.37-7.32 11.15-9.61 4.78-2.29 10.25-3.43 16.41-3.43s11.65 1.09 16.47 3.28 8.59 5.24 11.31 9.15 4.13 8.4 4.25 13.46h-21.76c0-1.5-.42-2.84-1.25-4.01-.83-1.18-2-2.09-3.53-2.74-1.52-.65-3.27-.97-5.26-.97s-3.66.3-5.13.91-2.62 1.46-3.43 2.55c-.81 1.1-1.22 2.37-1.22 3.83 0 1.62.52 2.98 1.58 4.07 1.05 1.09 2.49 1.85 4.31 2.25l14.53 2.67c4.38.77 8.27 2.36 11.67 4.77s6.05 5.44 7.93 9.09 2.82 7.66 2.82 12.04c0 5.35-1.41 10.12-4.22 14.32-2.81 4.19-6.75 7.46-11.79 9.81s-10.83 3.53-17.35 3.53-12.17-1.16-17.17-3.47z" /></svg>