<svg viewBox="0 0 87.16 88.02" xmlns="http://www.w3.org/2000/svg"><path d="m21.88 82.27c-6.81-3.83-12.16-9.1-16.05-15.8-3.89-6.71-5.83-14.19-5.83-22.46s1.94-15.75 5.84-22.46c3.89-6.71 9.24-11.98 16.05-15.8 6.8-3.84 14.4-5.75 22.79-5.75 7.29 0 13.97 1.38 20.03 4.13 6.05 2.76 11.05 6.6 14.98 11.52s6.42 10.55 7.47 16.87h-22.67c-.9-2.59-2.28-4.85-4.17-6.78s-4.17-3.4-6.87-4.44c-2.69-1.03-5.64-1.55-8.84-1.55-4.34 0-8.22 1.03-11.64 3.1s-6.09 4.94-7.99 8.6c-1.9 3.67-2.85 7.85-2.85 12.55s.95 8.89 2.85 12.55c1.9 3.67 4.57 6.53 7.99 8.6 3.43 2.06 7.31 3.1 11.64 3.1 3.2 0 6.15-.51 8.84-1.55 2.7-1.03 4.99-2.51 6.87-4.44s3.27-4.18 4.17-6.78h22.67c-1.05 6.32-3.55 11.94-7.47 16.87-3.93 4.92-8.93 8.76-14.98 11.52-6.06 2.76-12.74 4.14-20.03 4.14-8.39 0-15.99-1.91-22.79-5.74z" /></svg>