<svg viewBox="0 0 72.15 85.1" xmlns="http://www.w3.org/2000/svg"><path d="m0 0h38.3c6.4 0 12.04 1.15 16.9 3.46s8.61 5.56 11.24 9.75c2.64 4.19 3.95 9.01 3.95 14.44s-1.34 10.44-4.01 14.68c-2.68 4.24-6.48 7.53-11.4 9.88s-10.65 3.53-17.17 3.53h-15.93v29.36h-21.88zm42.52 37.14c1.76-.85 3.12-2.08 4.07-3.68s1.43-3.47 1.43-5.62-.47-4-1.43-5.56c-.95-1.56-2.31-2.77-4.07-3.62-1.77-.85-3.84-1.28-6.23-1.28h-14.4v21.03h14.4c2.39 0 4.47-.43 6.23-1.28zm-15.35 10.63h23.64l21.33 37.32h-24.92l-20.06-37.32z" /></svg>