<?xml version="1.0" encoding="utf-8"?>
<!-- Generator: Adobe Illustrator 28.1.0, SVG Export Plug-In . SVG Version: 6.00 Build 0)  -->
<svg version="1.1" id="Layer_1" xmlns="http://www.w3.org/2000/svg" xmlns:xlink="http://www.w3.org/1999/xlink" x="0px" y="0px"
	 viewBox="0 0 89.2 106" style="enable-background:new 0 0 89.2 106;" xml:space="preserve">
<path d="M83.4,21.5c-3.9-6.7-9.2-12-16-15.8S53.1,0,44.7,0s-16,1.9-22.8,5.8c-6.8,3.8-12.2,9.1-16,15.8
	C1.9,28.3,0,35.7,0,44s1.9,15.8,5.8,22.5c3.9,6.7,9.2,12,16,15.8l0,0c4,2.3,8.4,3.9,13,4.8c0.1,3.7,0.9,7,2.4,9.8
	c1.6,2.9,3.9,5.2,6.9,6.8l0,0c3,1.6,6.5,2.4,10.5,2.4h16.7V90.8H60.1c-1.1,0-2-0.2-2.7-0.6c-0.8-0.4-1.3-1-1.7-1.7
	c-0.3-0.5-0.4-1-0.5-1.6c4.3-0.9,8.4-2.5,12.3-4.6c6.8-3.8,12.1-9.1,16-15.8c3.9-6.7,5.8-14.2,5.8-22.5S87.3,28.2,83.4,21.5z M64,57
	c-1.9,3.8-4.5,6.8-7.9,8.9C52.8,68,49,69,44.7,69s-8.1-1.1-11.5-3.2c-3.4-2.1-6-5.1-7.9-8.9c-1.9-3.8-2.9-8.1-2.9-13s1-9.1,2.9-13
	c1.9-3.8,4.6-6.8,7.9-8.9C36.5,20,40.4,19,44.7,19s8.1,1.1,11.5,3.2c3.4,2.1,6,5.1,7.9,8.9s2.8,8.1,2.8,13S65.9,53.2,64,57z"/>
</svg>
