<?xml version="1.0" encoding="utf-8"?>
<!-- Generator: Adobe Illustrator 27.2.0, SVG Export Plug-In . SVG Version: 6.00 Build 0)  -->
<svg version="1.1" id="Layer_1" xmlns="http://www.w3.org/2000/svg" xmlns:xlink="http://www.w3.org/1999/xlink" x="0px" y="0px"
	 viewBox="0 0 100 100" style="enable-background:new 0 0 100 100;" xml:space="preserve">
<g>
	<path d="M49,91.2c-5.5,0-10.4-1-14.6-3.1c-4.2-2.1-7.5-4.9-9.8-8.6c-2.3-3.7-3.5-7.9-3.5-12.7c0-5,1.5-9.5,4.4-13.2
		c2.9-3.8,6.7-6.1,11.4-7.1v-0.2c-4-0.8-7.2-2.9-9.7-6.1c-2.5-3.2-3.7-7.1-3.7-11.5c0-4.4,1.1-8.2,3.2-11.5c2.1-3.3,5.1-5.9,9-7.8
		C39.5,7.3,44,6.4,49,6.4c5,0,9.5,0.9,13.4,2.8c3.9,1.9,6.9,4.5,9,7.8c2.1,3.3,3.2,7.2,3.2,11.5c0,4.4-1.2,8.3-3.7,11.5
		c-2.5,3.2-5.7,5.3-9.7,6.1v0.2c4.7,1,8.5,3.4,11.4,7.1c2.9,3.8,4.4,8.2,4.4,13.2c0,4.8-1.2,9.1-3.5,12.7c-2.3,3.7-5.6,6.5-9.8,8.6
		C59.4,90.2,54.5,91.2,49,91.2z M49,79.2c4.1,0,7.5-1.2,10.2-3.6c2.6-2.4,4-5.6,4-9.5c0-4-1.3-7.2-4-9.7c-2.6-2.4-6-3.7-10.2-3.7
		c-4.1,0-7.5,1.2-10.2,3.7c-2.6,2.4-4,5.7-4,9.7c0,3.9,1.3,7.1,4,9.5C41.5,78,44.9,79.2,49,79.2z M49,41.3c3.5,0,6.4-1.1,8.6-3.2
		c2.2-2.1,3.3-4.9,3.3-8.3c0-3.5-1.1-6.3-3.3-8.4c-2.2-2.1-5-3.2-8.6-3.2c-3.5,0-6.4,1.1-8.6,3.2c-2.2,2.1-3.3,5-3.3,8.4
		c0,3.4,1.1,6.2,3.3,8.3C42.6,40.3,45.5,41.3,49,41.3z"/>
</g>
</svg>
