<?xml version="1.0" encoding="utf-8"?>
<!-- Generator: Adobe Illustrator 27.2.0, SVG Export Plug-In . SVG Version: 6.00 Build 0)  -->
<svg version="1.1" id="Layer_1" xmlns="http://www.w3.org/2000/svg" xmlns:xlink="http://www.w3.org/1999/xlink" x="0px" y="0px"
	 viewBox="0 0 100 100" style="enable-background:new 0 0 100 100;" xml:space="preserve">
<g>
	<path d="M23.5,89.3V76.5l29.7-30.4c4.8-5,7.2-10.2,7.2-15.4c0-3.7-1.1-6.7-3.2-9c-2.1-2.3-5-3.4-8.6-3.4c-3.7,0-6.7,1.2-8.9,3.6
		c-2.2,2.4-3.3,5.5-3.3,9.4H22.2c0-5.1,1.1-9.6,3.4-13.5C27.9,14,31,11,35,8.9c4-2.1,8.6-3.2,13.9-3.2c5.2,0,9.8,1,13.7,3.1
		c3.9,2,7,4.9,9.1,8.5c2.1,3.7,3.2,7.9,3.2,12.8c0,4.2-1,8.4-3,12.7c-2,4.2-5.3,8.6-9.9,13.1L41.2,76.5h34.7v12.8H23.5z"/>
</g>
</svg>
