<?xml version="1.0" encoding="utf-8"?>
<!-- Generator: Adobe Illustrator 27.2.0, SVG Export Plug-In . SVG Version: 6.00 Build 0)  -->
<svg version="1.1" id="Layer_1" xmlns="http://www.w3.org/2000/svg" xmlns:xlink="http://www.w3.org/1999/xlink" x="0px" y="0px"
	 viewBox="0 0 100 100" style="enable-background:new 0 0 100 100;" xml:space="preserve">
<g>
	<path d="M49.3,91.2c-5.4,0-10-1-13.9-3.1c-3.9-2-7-4.9-9.1-8.6c-2.1-3.7-3.2-8-3.2-13V31c0-5,1.1-9.3,3.2-13
		c2.1-3.7,5.2-6.6,9.1-8.6c3.9-2,8.6-3.1,13.9-3.1c5.4,0,10,1,13.9,3.1c3.9,2,7,4.9,9.1,8.6c2.1,3.7,3.2,8,3.2,13v35.5
		c0,5-1.1,9.3-3.2,13c-2.1,3.7-5.2,6.6-9.1,8.6C59.3,90.2,54.7,91.2,49.3,91.2z M49.3,79c3.9,0,7-1.1,9.4-3.4c2.3-2.3,3.5-5.3,3.5-9
		V31c0-3.8-1.2-6.8-3.4-9c-2.3-2.3-5.4-3.4-9.4-3.4c-4,0-7.1,1.1-9.4,3.4c-2.3,2.3-3.4,5.3-3.4,9v35.5c0,3.8,1.2,6.8,3.5,9
		C42.3,77.8,45.4,79,49.3,79z M49.3,55.6c-2.3,0-4.1-0.6-5.4-1.9c-1.4-1.2-2-3-2-5.3s0.7-4,2-5.1c1.4-1.2,3.2-1.8,5.4-1.8
		c2.3,0,4.1,0.6,5.4,1.8c1.4,1.2,2,2.9,2,5.1s-0.7,4-2,5.3C53.4,55,51.6,55.6,49.3,55.6z"/>
</g>
</svg>
