<?xml version="1.0" encoding="utf-8"?>
<!-- Generator: Adobe Illustrator 27.2.0, SVG Export Plug-In . SVG Version: 6.00 Build 0)  -->
<svg version="1.1" id="Layer_1" xmlns="http://www.w3.org/2000/svg" xmlns:xlink="http://www.w3.org/1999/xlink" x="0px" y="0px"
	 viewBox="0 0 100 100" style="enable-background:new 0 0 100 100;" xml:space="preserve">
<g>
	<path d="M35.9,91.1l19.3-33.3c-0.9,0.7-2,1.3-3.2,1.8c-1.2,0.5-3,0.7-5.4,0.7c-4.5,0-8.6-1.1-12.4-3.3c-3.7-2.2-6.7-5.2-8.9-9.1
		c-2.2-3.9-3.3-8.4-3.3-13.5c0-5.4,1.1-10.2,3.4-14.2c2.3-4,5.5-7.2,9.7-9.4c4.2-2.2,9.1-3.3,14.8-3.3c5.7,0,10.6,1.1,14.8,3.4
		c4.2,2.3,7.4,5.4,9.7,9.6c2.3,4.1,3.4,8.9,3.4,14.4c0,3.2-0.7,7-2.1,11.1c-1.4,4.2-3.3,8.4-5.7,12.7L52.3,91.1H35.9z M50,48.9
		c4.2,0,7.6-1.3,10.2-4c2.6-2.7,3.8-6.3,3.8-10.8c0-4.4-1.3-8-3.8-10.7c-2.6-2.7-6-4-10.2-4c-4.2,0-7.6,1.3-10.2,4
		c-2.6,2.7-3.8,6.2-3.8,10.7c0,4.5,1.3,8.1,3.8,10.8C42.4,47.6,45.8,48.9,50,48.9z"/>
</g>
</svg>
