<?xml version="1.0" encoding="utf-8"?>
<!-- Generator: Adobe Illustrator 27.2.0, SVG Export Plug-In . SVG Version: 6.00 Build 0)  -->
<svg version="1.1" id="Layer_1" xmlns="http://www.w3.org/2000/svg" xmlns:xlink="http://www.w3.org/1999/xlink" x="0px" y="0px"
	 viewBox="0 0 100 100" style="enable-background:new 0 0 100 100;" xml:space="preserve">
<g>
	<path d="M49.5,90.2c-8.1,0-14.5-2.1-19.3-6.4c-4.8-4.3-7.2-10-7.2-17.4h14.1c0,3.5,1.1,6.2,3.3,8.3c2.2,2.1,5.3,3.1,9.1,3.1
		c3.8,0,6.8-1,9-3.1c2.1-2.1,3.2-5,3.2-8.6v-5.4c0-3.7-1.1-6.6-3.2-8.6c-2.1-2.1-5.1-3.1-8.9-3.1H25.9V6.5h47v12.8H39.3l0.1,17.2
		h11.1c8.1,0,14.4,2.1,18.9,6.3C73.8,47,76,53,76,60.7v5.4c0,7.5-2.4,13.3-7.1,17.6C64.2,88,57.8,90.2,49.5,90.2z"/>
</g>
</svg>
