<?xml version="1.0" encoding="utf-8"?>
<!-- Generator: Adobe Illustrator 27.2.0, SVG Export Plug-In . SVG Version: 6.00 Build 0)  -->
<svg version="1.1" id="Layer_1" xmlns="http://www.w3.org/2000/svg" xmlns:xlink="http://www.w3.org/1999/xlink" x="0px" y="0px"
	 viewBox="0 0 100 100" style="enable-background:new 0 0 100 100;" xml:space="preserve">
<g>
	<path d="M49.2,89.9c-8.1,0-14.6-2.1-19.3-6.4c-4.7-4.3-7.1-10-7.1-17.4H37c0,3.5,1.1,6.2,3.3,8.3c2.2,2.1,5.2,3.1,9,3.1
		c3.8,0,6.7-1,8.9-3.1c2.2-2.1,3.3-4.8,3.3-8.3V60c0-3.7-1.1-6.6-3.2-8.6c-2.1-2.1-5.1-3.1-9-3.1H38.9V36.9l19-18.2H25.7V6.3h47.7
		v12l-19,18.2c6.6,0.9,11.9,3.4,15.7,7.5c3.8,4.1,5.7,9.4,5.7,16v6.2c0,7.3-2.4,13.1-7.2,17.4C63.8,87.8,57.3,89.9,49.2,89.9z"/>
</g>
</svg>
