<?xml version="1.0" encoding="utf-8"?>
<!-- Generator: Adobe Illustrator 27.2.0, SVG Export Plug-In . SVG Version: 6.00 Build 0)  -->
<svg version="1.1" id="Layer_1" xmlns="http://www.w3.org/2000/svg" xmlns:xlink="http://www.w3.org/1999/xlink" x="0px" y="0px"
	 viewBox="0 0 100 100" style="enable-background:new 0 0 100 100;" xml:space="preserve">
<g>
	<path d="M50,90.2c-5.7,0-10.6-1.1-14.8-3.4c-4.2-2.3-7.4-5.4-9.7-9.6c-2.3-4.1-3.4-8.9-3.4-14.4c0-3.2,0.7-7,2.1-11.1
		c1.4-4.2,3.3-8.4,5.7-12.7L47.7,6.5h16.1L42.5,42.9l0.5,0.2c1.1-1.6,2.8-2.8,5-3.7c2.2-0.9,4.6-1.4,7.1-1.4c4.6,0,8.6,1,12,3.1
		c3.4,2.1,6.1,5,8,8.8c1.9,3.8,2.8,8.2,2.8,13.3c0,5.4-1.2,10.2-3.4,14.2c-2.3,4-5.5,7.2-9.7,9.4S55.7,90.2,50,90.2z M50,78.2
		c4.2,0,7.6-1.3,10.2-4C62.7,71.5,64,68,64,63.5c0-4.5-1.3-8.1-3.8-10.8c-2.6-2.7-6-4-10.2-4c-4.2,0-7.6,1.3-10.2,4
		C37.3,55.4,36,59,36,63.5c0,4.4,1.3,8,3.8,10.7C42.4,76.9,45.8,78.2,50,78.2z"/>
</g>
</svg>
