<svg id="Layer_1" data-name="Layer 1" xmlns="http://www.w3.org/2000/svg" viewBox="0 0 100 100"><circle cx="56.25" cy="6.25" r="2.3"/><circle cx="56.25" cy="18.75" r="2.3"/><circle cx="56.25" cy="31.25" r="2.3"/><circle cx="56.25" cy="43.75" r="2.3"/><circle cx="56.25" cy="56.25" r="2.3"/><circle cx="56.25" cy="68.75" r="2.3"/><circle cx="56.25" cy="81.25" r="2.3"/><circle cx="56.25" cy="93.75" r="2.3"/><circle cx="43.75" cy="6.25" r="2.3"/><circle cx="43.75" cy="18.75" r="2.3"/><circle cx="43.75" cy="31.25" r="2.3"/><circle cx="43.75" cy="43.75" r="2.3"/><circle cx="43.75" cy="56.25" r="2.3"/><circle cx="43.75" cy="68.75" r="2.3"/><circle cx="43.75" cy="81.25" r="2.3"/><circle cx="43.75" cy="93.75" r="2.3"/><circle cx="31.25" cy="6.25" r="2.3"/><circle cx="31.25" cy="18.75" r="2.3"/><circle cx="31.25" cy="31.25" r="2.3"/><circle cx="31.25" cy="43.75" r="2.3"/><circle cx="31.25" cy="56.25" r="2.3"/><circle cx="31.25" cy="68.75" r="2.3"/><circle cx="31.25" cy="81.25" r="2.3"/><circle cx="31.25" cy="93.75" r="2.3"/><circle cx="18.75" cy="6.25" r="2.3"/><circle cx="18.75" cy="18.75" r="2.3"/><circle cx="18.75" cy="31.25" r="2.3"/><circle cx="18.75" cy="43.75" r="2.3"/><circle cx="18.75" cy="56.25" r="2.3"/><circle cx="18.75" cy="68.75" r="2.3"/><circle cx="18.75" cy="81.25" r="2.3"/><circle cx="18.75" cy="93.75" r="2.3"/><circle cx="6.25" cy="6.25" r="2.3"/><circle cx="6.25" cy="18.75" r="2.3"/><circle cx="6.25" cy="31.25" r="2.3"/><circle cx="6.25" cy="43.75" r="2.3"/><circle cx="6.25" cy="56.25" r="2.3"/><circle cx="6.25" cy="68.75" r="2.3"/><circle cx="6.25" cy="81.25" r="2.3"/><circle cx="6.25" cy="93.75" r="2.3"/><circle cx="68.75" cy="6.25" r="2.3"/><circle cx="68.75" cy="18.75" r="2.3"/><circle cx="68.75" cy="31.25" r="2.3"/><circle cx="68.75" cy="43.75" r="2.3"/><circle cx="68.75" cy="56.25" r="2.3"/><circle cx="68.75" cy="68.75" r="2.3"/><circle cx="68.75" cy="81.25" r="2.3"/><circle cx="68.75" cy="93.75" r="2.3"/><circle cx="81.25" cy="6.25" r="2.3"/><circle cx="81.25" cy="18.75" r="2.3"/><circle cx="81.25" cy="31.25" r="2.3"/><circle cx="81.25" cy="43.75" r="2.3"/><circle cx="81.25" cy="56.25" r="2.3"/><circle cx="81.25" cy="68.75" r="2.3"/><circle cx="81.25" cy="81.25" r="2.3"/><circle cx="81.25" cy="93.75" r="2.3"/><circle cx="93.75" cy="6.25" r="2.3"/><circle cx="93.75" cy="18.75" r="2.3"/><circle cx="93.75" cy="31.25" r="2.3"/><circle cx="93.75" cy="43.75" r="2.3"/><circle cx="93.75" cy="56.25" r="2.3"/><circle cx="93.75" cy="68.75" r="2.3"/><circle cx="93.75" cy="81.25" r="2.3"/><circle cx="93.75" cy="93.75" r="2.3"/></svg>