<svg id="Layer_1" data-name="Layer 1" xmlns="http://www.w3.org/2000/svg" width="100" height="100" viewBox="0 0 100 100">
  <g>
    <g>
      <rect x="8.20471" y="8.20539" width="8.59135" height="8.59135" transform="translate(-5.17831 12.50058) rotate(-45)"/>
      <rect x="33.204" y="8.20539" width="8.59135" height="8.59135" transform="translate(2.14381 30.17775) rotate(-45)"/>
      <rect x="58.20329" y="8.20539" width="8.59135" height="8.59135" transform="translate(9.46594 47.85492) rotate(-45)"/>
      <rect x="83.20258" y="8.20539" width="8.59135" height="8.59135" transform="translate(16.78806 65.53209) rotate(-45)"/>
      <rect x="8.20471" y="33.20471" width="8.59135" height="8.59135" transform="translate(-22.8555 19.82271) rotate(-45)"/>
      <rect x="33.204" y="33.20471" width="8.59135" height="8.59135" transform="translate(-15.53338 37.49988) rotate(-45)"/>
      <rect x="58.20329" y="33.20471" width="8.59135" height="8.59135" transform="translate(-8.21125 55.17705) rotate(-45)"/>
      <rect x="83.20258" y="33.20471" width="8.59135" height="8.59135" transform="translate(-0.88913 72.85422) rotate(-45)"/>
    </g>
    <g>
      <rect x="8.20471" y="58.20535" width="8.59135" height="8.59135" transform="translate(-40.53362 27.14523) rotate(-45)"/>
      <rect x="33.204" y="58.20535" width="8.59135" height="8.59135" transform="translate(-33.2115 44.8224) rotate(-45)"/>
      <rect x="58.20329" y="58.20535" width="8.59135" height="8.59135" transform="translate(-25.88937 62.49957) rotate(-45)"/>
      <rect x="83.20258" y="58.20535" width="8.59135" height="8.59135" transform="translate(-18.56725 80.17673) rotate(-45)"/>
      <rect x="8.20471" y="83.20467" width="8.59135" height="8.59135" transform="translate(-58.21081 34.46736) rotate(-45)"/>
      <rect x="33.204" y="83.20467" width="8.59135" height="8.59135" transform="translate(-50.88868 52.14453) rotate(-45)"/>
      <rect x="58.20329" y="83.20467" width="8.59135" height="8.59135" transform="translate(-43.56656 69.8217) rotate(-45)"/>
      <rect x="83.20258" y="83.20467" width="8.59135" height="8.59135" transform="translate(-36.24444 87.49886) rotate(-45)"/>
    </g>
  </g>
</svg>
