<svg id="Layer_1" data-name="Layer 1" xmlns="http://www.w3.org/2000/svg" width="100" height="100" viewBox="0 0 100 100">
  <g>
    <g>
      <g>
        <rect x="23.95647" y="1.73122" width="7.6378" height="7.6378" transform="translate(4.21069 21.26574) rotate(-44.99999)"/>
        <rect x="12.84416" y="1.73122" width="7.6378" height="7.6378" transform="translate(0.95597 13.40815) rotate(-44.99999)"/>
        <rect x="35.06879" y="1.73151" width="7.6378" height="7.6378" transform="translate(7.4652 29.12342) rotate(-44.99999)"/>
        <rect x="46.1811" y="1.7318" width="7.6378" height="7.6378" transform="translate(10.71972 36.9811) rotate(-44.99999)"/>
        <rect x="1.73184" y="1.73151" width="7.6378" height="7.6378" transform="translate(-2.29896 5.55064) rotate(-44.99999)"/>
      </g>
      <g>
        <rect x="68.40573" y="1.73122" width="7.6378" height="7.6378" transform="translate(17.22957 52.69611) rotate(-44.99999)"/>
        <rect x="57.29342" y="1.73122" width="7.6378" height="7.6378" transform="translate(13.97485 44.83852) rotate(-44.99999)"/>
        <rect x="79.51805" y="1.73151" width="7.6378" height="7.6378" transform="translate(20.48408 60.55379) rotate(-44.99999)"/>
        <rect x="90.63036" y="1.7318" width="7.6378" height="7.6378" transform="translate(23.7386 68.41146) rotate(-44.99999)"/>
      </g>
    </g>
    <g>
      <g>
        <rect x="23.95647" y="12.84362" width="7.6378" height="7.6378" transform="translate(-3.64696 24.52048) rotate(-44.99999)"/>
        <rect x="12.84416" y="12.84362" width="7.6378" height="7.6378" transform="translate(-6.90168 16.66289) rotate(-44.99999)"/>
        <rect x="35.06879" y="12.84391" width="7.6378" height="7.6378" transform="translate(-0.39245 32.37816) rotate(-44.99999)"/>
        <rect x="46.1811" y="12.8442" width="7.6378" height="7.6378" transform="translate(2.86207 40.23584) rotate(-44.99999)"/>
        <rect x="1.73184" y="12.84391" width="7.6378" height="7.6378" transform="translate(-10.15661 8.80539) rotate(-44.99999)"/>
      </g>
      <g>
        <rect x="68.40573" y="12.84362" width="7.6378" height="7.6378" transform="translate(9.37192 55.95085) rotate(-44.99999)"/>
        <rect x="57.29342" y="12.84362" width="7.6378" height="7.6378" transform="translate(6.1172 48.09326) rotate(-44.99999)"/>
        <rect x="79.51805" y="12.84391" width="7.6378" height="7.6378" transform="translate(12.62643 63.80853) rotate(-44.99999)"/>
        <rect x="90.63036" y="12.8442" width="7.6378" height="7.6378" transform="translate(15.88095 71.66621) rotate(-44.99999)"/>
      </g>
    </g>
    <g>
      <g>
        <rect x="23.95647" y="23.95601" width="7.6378" height="7.6378" transform="translate(-11.50461 27.77523) rotate(-44.99999)"/>
        <rect x="12.84416" y="23.95601" width="7.6378" height="7.6378" transform="translate(-14.75933 19.91764) rotate(-44.99999)"/>
        <rect x="35.06879" y="23.95631" width="7.6378" height="7.6378" transform="translate(-8.2501 35.63291) rotate(-44.99999)"/>
        <rect x="46.1811" y="23.9566" width="7.6378" height="7.6378" transform="translate(-4.99558 43.49058) rotate(-44.99999)"/>
        <rect x="1.73184" y="23.95631" width="7.6378" height="7.6378" transform="translate(-18.01426 12.06013) rotate(-44.99999)"/>
      </g>
      <g>
        <rect x="68.40573" y="23.95601" width="7.6378" height="7.6378" transform="translate(1.51427 59.2056) rotate(-44.99999)"/>
        <rect x="57.29342" y="23.95601" width="7.6378" height="7.6378" transform="translate(-1.74045 51.348) rotate(-44.99999)"/>
        <rect x="79.51805" y="23.95631" width="7.6378" height="7.6378" transform="translate(4.76878 67.06327) rotate(-44.99999)"/>
        <rect x="90.63036" y="23.9566" width="7.6378" height="7.6378" transform="translate(8.0233 74.92095) rotate(-44.99999)"/>
      </g>
    </g>
    <g>
      <g>
        <rect x="23.95647" y="35.06841" width="7.6378" height="7.6378" transform="translate(-19.36226 31.02997) rotate(-44.99999)"/>
        <rect x="12.84416" y="35.06841" width="7.6378" height="7.6378" transform="translate(-22.61698 23.17238) rotate(-44.99999)"/>
        <rect x="35.06879" y="35.0687" width="7.6378" height="7.6378" transform="translate(-16.10775 38.88765) rotate(-44.99999)"/>
        <rect x="46.1811" y="35.069" width="7.6378" height="7.6378" transform="translate(-12.85323 46.74533) rotate(-44.99999)"/>
        <rect x="1.73184" y="35.0687" width="7.6378" height="7.6378" transform="translate(-25.87191 15.31487) rotate(-44.99999)"/>
      </g>
      <g>
        <rect x="68.40573" y="35.06841" width="7.6378" height="7.6378" transform="translate(-6.34338 62.46034) rotate(-44.99999)"/>
        <rect x="57.29342" y="35.06841" width="7.6378" height="7.6378" transform="translate(-9.5981 54.60275) rotate(-44.99999)"/>
        <rect x="79.51805" y="35.0687" width="7.6378" height="7.6378" transform="translate(-3.08887 70.31802) rotate(-44.99999)"/>
        <rect x="90.63036" y="35.069" width="7.6378" height="7.6378" transform="translate(0.16565 78.1757) rotate(-44.99999)"/>
      </g>
    </g>
    <g>
      <g>
        <rect x="23.95647" y="46.18081" width="7.6378" height="7.6378" transform="translate(-27.21991 34.28472) rotate(-44.99999)"/>
        <rect x="12.84416" y="46.18081" width="7.6378" height="7.6378" transform="translate(-30.47463 26.42713) rotate(-44.99999)"/>
        <rect x="35.06879" y="46.1811" width="7.6378" height="7.6378" transform="translate(-23.9654 42.1424) rotate(-44.99999)"/>
        <rect x="46.1811" y="46.18139" width="7.6378" height="7.6378" transform="translate(-20.71089 50.00007) rotate(-44.99999)"/>
        <rect x="1.73184" y="46.1811" width="7.6378" height="7.6378" transform="translate(-33.72956 18.56962) rotate(-44.99999)"/>
      </g>
      <g>
        <rect x="68.40573" y="46.18081" width="7.6378" height="7.6378" transform="translate(-14.20103 65.71509) rotate(-44.99999)"/>
        <rect x="57.29342" y="46.18081" width="7.6378" height="7.6378" transform="translate(-17.45575 57.85749) rotate(-44.99999)"/>
        <rect x="79.51805" y="46.1811" width="7.6378" height="7.6378" transform="translate(-10.94652 73.57276) rotate(-44.99999)"/>
        <rect x="90.63036" y="46.18139" width="7.6378" height="7.6378" transform="translate(-7.692 81.43044) rotate(-44.99999)"/>
      </g>
    </g>
    <g>
      <g>
        <rect x="23.95647" y="57.29321" width="7.6378" height="7.6378" transform="translate(-35.07756 37.53946) rotate(-44.99999)"/>
        <rect x="12.84416" y="57.29321" width="7.6378" height="7.6378" transform="translate(-38.33228 29.68187) rotate(-44.99999)"/>
        <rect x="35.06879" y="57.2935" width="7.6378" height="7.6378" transform="translate(-31.82305 45.39714) rotate(-44.99999)"/>
        <rect x="46.1811" y="57.29379" width="7.6378" height="7.6378" transform="translate(-28.56854 53.25482) rotate(-44.99999)"/>
        <rect x="1.73184" y="57.2935" width="7.6378" height="7.6378" transform="translate(-41.58721 21.82436) rotate(-44.99999)"/>
      </g>
      <g>
        <rect x="68.40573" y="57.29321" width="7.6378" height="7.6378" transform="translate(-22.05868 68.96983) rotate(-44.99999)"/>
        <rect x="57.29342" y="57.29321" width="7.6378" height="7.6378" transform="translate(-25.3134 61.11224) rotate(-44.99999)"/>
        <rect x="79.51805" y="57.2935" width="7.6378" height="7.6378" transform="translate(-18.80417 76.82751) rotate(-44.99999)"/>
        <rect x="90.63036" y="57.29379" width="7.6378" height="7.6378" transform="translate(-15.54965 84.68519) rotate(-44.99999)"/>
      </g>
    </g>
    <g>
      <g>
        <rect x="23.95647" y="68.4056" width="7.6378" height="7.6378" transform="translate(-42.93521 40.79421) rotate(-44.99999)"/>
        <rect x="12.84416" y="68.4056" width="7.6378" height="7.6378" transform="translate(-46.18993 32.93661) rotate(-44.99999)"/>
        <rect x="35.06879" y="68.4059" width="7.6378" height="7.6378" transform="translate(-39.6807 48.65188) rotate(-44.99999)"/>
        <rect x="46.1811" y="68.40619" width="7.6378" height="7.6378" transform="translate(-36.42619 56.50956) rotate(-44.99999)"/>
        <rect x="1.73184" y="68.4059" width="7.6378" height="7.6378" transform="translate(-49.44486 25.07911) rotate(-44.99999)"/>
      </g>
      <g>
        <rect x="68.40573" y="68.4056" width="7.6378" height="7.6378" transform="translate(-29.91633 72.22458) rotate(-44.99999)"/>
        <rect x="57.29342" y="68.4056" width="7.6378" height="7.6378" transform="translate(-33.17105 64.36698) rotate(-44.99999)"/>
        <rect x="79.51805" y="68.4059" width="7.6378" height="7.6378" transform="translate(-26.66182 80.08225) rotate(-44.99999)"/>
        <rect x="90.63036" y="68.40619" width="7.6378" height="7.6378" transform="translate(-23.4073 87.93993) rotate(-44.99999)"/>
      </g>
    </g>
    <g>
      <g>
        <rect x="23.95647" y="79.518" width="7.6378" height="7.6378" transform="translate(-50.79286 44.04895) rotate(-44.99999)"/>
        <rect x="12.84416" y="79.518" width="7.6378" height="7.6378" transform="translate(-54.04758 36.19136) rotate(-44.99999)"/>
        <rect x="35.06879" y="79.51829" width="7.6378" height="7.6378" transform="translate(-47.53835 51.90663) rotate(-44.99999)"/>
        <rect x="46.1811" y="79.51859" width="7.6378" height="7.6378" transform="translate(-44.28384 59.76431) rotate(-44.99999)"/>
        <rect x="1.73184" y="79.51829" width="7.6378" height="7.6378" transform="translate(-57.30251 28.33385) rotate(-44.99999)"/>
      </g>
      <g>
        <rect x="68.40573" y="79.518" width="7.6378" height="7.6378" transform="translate(-37.77398 75.47932) rotate(-44.99999)"/>
        <rect x="57.29342" y="79.518" width="7.6378" height="7.6378" transform="translate(-41.0287 67.62173) rotate(-44.99999)"/>
        <rect x="79.51805" y="79.51829" width="7.6378" height="7.6378" transform="translate(-34.51947 83.337) rotate(-44.99999)"/>
        <rect x="90.63036" y="79.51859" width="7.6378" height="7.6378" transform="translate(-31.26495 91.19468) rotate(-44.99999)"/>
      </g>
    </g>
    <g>
      <g>
        <rect x="23.95647" y="90.6304" width="7.6378" height="7.6378" transform="translate(-58.65051 47.3037) rotate(-44.99999)"/>
        <rect x="12.84416" y="90.6304" width="7.6378" height="7.6378" transform="translate(-61.90523 39.4461) rotate(-44.99999)"/>
        <rect x="35.06879" y="90.63069" width="7.6378" height="7.6378" transform="translate(-55.396 55.16137) rotate(-44.99999)"/>
        <rect x="46.1811" y="90.63099" width="7.6378" height="7.6378" transform="translate(-52.14149 63.01905) rotate(-44.99999)"/>
        <rect x="1.73184" y="90.63069" width="7.6378" height="7.6378" transform="translate(-65.16016 31.5886) rotate(-44.99999)"/>
      </g>
      <g>
        <rect x="68.40573" y="90.6304" width="7.6378" height="7.6378" transform="translate(-45.63163 78.73406) rotate(-44.99999)"/>
        <rect x="57.29342" y="90.6304" width="7.6378" height="7.6378" transform="translate(-48.88635 70.87647) rotate(-44.99999)"/>
        <rect x="79.51805" y="90.63069" width="7.6378" height="7.6378" transform="translate(-42.37712 86.59174) rotate(-44.99999)"/>
        <rect x="90.63036" y="90.63099" width="7.6378" height="7.6378" transform="translate(-39.12261 94.44942) rotate(-44.99999)"/>
      </g>
    </g>
  </g>
</svg>
