<svg id="Layer_1" data-name="Layer 1" xmlns="http://www.w3.org/2000/svg" width="100" height="100" viewBox="0 0 100 100">
  <g>
    <g>
      <rect x="90.63039" y="46.18112" width="7.6378" height="7.6378" transform="translate(-7.69182 81.43034) rotate(-44.99997)"/>
      <g>
        <rect x="90.63097" y="68.40576" width="7.6378" height="7.6378" transform="translate(-23.40683 87.94019) rotate(-44.99997)"/>
        <rect x="90.63098" y="57.29344" width="7.6378" height="7.6378" transform="translate(-15.54924 84.68547) rotate(-44.99997)"/>
        <rect x="90.63068" y="79.51807" width="7.6378" height="7.6378" transform="translate(-31.2645 91.1947) rotate(-44.99997)"/>
        <rect x="90.63038" y="90.63039" width="7.6378" height="7.6378" transform="translate(-39.12218 94.44921) rotate(-44.99997)"/>
      </g>
    </g>
    <g>
      <rect x="79.51829" y="35.0688" width="7.6378" height="7.6378" transform="translate(-3.08888 70.31819) rotate(-44.99997)"/>
      <g>
        <rect x="79.51858" y="68.40575" width="7.6378" height="7.6378" transform="translate(-26.66156 80.08254) rotate(-44.99997)"/>
        <rect x="79.51858" y="57.29344" width="7.6378" height="7.6378" transform="translate(-18.80397 76.82782) rotate(-44.99997)"/>
        <rect x="79.51828" y="79.51807" width="7.6378" height="7.6378" transform="translate(-34.51924 83.33705) rotate(-44.99997)"/>
        <rect x="79.51799" y="90.63039" width="7.6378" height="7.6378" transform="translate(-42.37692 86.59156) rotate(-44.99997)"/>
      </g>
    </g>
    <g>
      <g>
        <rect x="68.40619" y="23.95648" width="7.6378" height="7.6378" transform="translate(1.51406 59.20603) rotate(-44.99997)"/>
        <rect x="68.4056" y="46.18112" width="7.6378" height="7.6378" transform="translate(-14.20129 65.71505) rotate(-44.99997)"/>
      </g>
      <g>
        <rect x="68.40618" y="68.40575" width="7.6378" height="7.6378" transform="translate(-29.9163 72.22489) rotate(-44.99997)"/>
        <rect x="68.40589" y="79.51807" width="7.6378" height="7.6378" transform="translate(-37.77398 75.4794) rotate(-44.99997)"/>
        <rect x="68.40559" y="90.63038" width="7.6378" height="7.6378" transform="translate(-45.63166 78.73391) rotate(-44.99997)"/>
      </g>
    </g>
    <g>
      <g>
        <rect x="57.2938" y="12.84416" width="7.6378" height="7.6378" transform="translate(6.11691 48.09367) rotate(-44.99997)"/>
        <rect x="57.2935" y="35.0688" width="7.6378" height="7.6378" transform="translate(-9.59836 54.60289) rotate(-44.99997)"/>
      </g>
      <g>
        <rect x="57.29379" y="57.29343" width="7.6378" height="7.6378" transform="translate(-25.31345 61.11253) rotate(-44.99997)"/>
        <rect x="57.29349" y="79.51806" width="7.6378" height="7.6378" transform="translate(-41.02872 67.62176) rotate(-44.99997)"/>
        <rect x="57.29319" y="90.63038" width="7.6378" height="7.6378" transform="translate(-48.88639 70.87626) rotate(-44.99997)"/>
      </g>
    </g>
    <g>
      <g>
        <rect x="46.1814" y="23.95648" width="7.6378" height="7.6378" transform="translate(-4.99542 43.49074) rotate(-44.99997)"/>
        <rect x="46.18081" y="46.18111" width="7.6378" height="7.6378" transform="translate(-20.71077 49.99975) rotate(-44.99997)"/>
        <rect x="66.49809" y="-6.68372" width="7.6378" height="65.10287" transform="translate(2.30413 57.29809) rotate(-45)"/>
      </g>
      <g>
        <rect x="46.18139" y="68.40574" width="7.6378" height="7.6378" transform="translate(-36.42578 56.5096) rotate(-44.99997)"/>
        <rect x="46.1808" y="90.63038" width="7.6378" height="7.6378" transform="translate(-52.14113 63.01862) rotate(-44.99997)"/>
      </g>
    </g>
    <g>
      <g>
        <rect x="56.30108" y="4.04954" width="7.6378" height="67.69117" transform="translate(-9.18717 53.61046) rotate(-45)"/>
        <rect x="35.06871" y="35.06879" width="7.6378" height="7.6378" transform="translate(-16.10783 38.8876) rotate(-44.99997)"/>
        <rect x="35.06872" y="1.73184" width="7.6378" height="7.6378" transform="translate(7.46494 29.12345) rotate(-44.99997)"/>
      </g>
      <g>
        <rect x="35.069" y="57.29342" width="7.6378" height="7.6378" transform="translate(-31.82293 45.39724) rotate(-44.99997)"/>
        <rect x="35.0687" y="79.51806" width="7.6378" height="7.6378" transform="translate(-47.5382 51.90646) rotate(-44.99997)"/>
      </g>
    </g>
    <g>
      <g>
        <rect x="45.45562" y="15.05129" width="7.6378" height="68.44619" transform="translate(-20.41008 49.27447) rotate(-45)"/>
        <rect x="23.95661" y="12.84415" width="7.6378" height="7.6378" transform="translate(-3.6473 24.52073) rotate(-44.99997)"/>
        <rect x="23.95602" y="46.1811" width="7.6378" height="7.6378" transform="translate(-27.22025 34.28446) rotate(-44.99997)"/>
        <rect x="23.95632" y="1.73184" width="7.6378" height="7.6378" transform="translate(4.2102 21.2658) rotate(-44.99997)"/>
      </g>
      <rect x="23.9566" y="68.40574" width="7.6378" height="7.6378" transform="translate(-42.93526 40.79431) rotate(-44.99997)"/>
    </g>
    <g>
      <g>
        <rect x="12.84421" y="23.95647" width="7.6378" height="7.6378" transform="translate(-14.75963 19.9178) rotate(-44.99997)"/>
        <rect x="12.84421" y="12.84415" width="7.6378" height="7.6378" transform="translate(-6.90204 16.66308) rotate(-44.99997)"/>
        <rect x="33.04656" y="26.70058" width="7.6378" height="64.7795" transform="translate(-30.98553 43.37497) rotate(-45)"/>
        <rect x="12.84392" y="1.73183" width="7.6378" height="7.6378" transform="translate(0.95546 13.40816) rotate(-44.99997)"/>
      </g>
      <rect x="12.8442" y="57.29342" width="7.6378" height="7.6378" transform="translate(-38.33241 29.68194) rotate(-44.99997)"/>
    </g>
    <g>
      <rect x="1.73182" y="23.95646" width="7.6378" height="7.6378" transform="translate(-18.01437 12.06015) rotate(-44.99997)"/>
      <rect x="1.73182" y="12.84415" width="7.6378" height="7.6378" transform="translate(-10.15678 8.80543) rotate(-44.99997)"/>
      <rect x="1.73152" y="35.06878" width="7.6378" height="7.6378" transform="translate(-25.87205 15.31466) rotate(-44.99997)"/>
      <rect x="21.89583" y="37.82864" width="7.6378" height="64.67192" transform="translate(-42.08219 38.73379) rotate(-45)"/>
      <rect x="1.73153" y="1.73183" width="7.6378" height="7.6378" transform="translate(-2.29928 5.55051) rotate(-44.99997)"/>
    </g>
  </g>
</svg>
