<svg id="Layer_1" data-name="Layer 1" xmlns="http://www.w3.org/2000/svg" width="100" height="100" viewBox="0 0 100 100">
  <g>
    <rect x="1.73151" y="46.18085" width="7.63781" height="7.63781" transform="translate(-33.72949 18.56934) rotate(-45.00001)"/>
    <g>
      <rect x="12.84364" y="57.29318" width="7.63781" height="7.63781" transform="translate(-38.33243 29.68152) rotate(-45.00001)"/>
      <rect x="12.84337" y="35.06853" width="7.63781" height="7.63781" transform="translate(-22.6173 23.17188) rotate(-45.00001)"/>
    </g>
    <g>
      <g>
        <rect x="23.95576" y="68.4055" width="7.63781" height="7.63781" transform="translate(-42.93536 40.79371) rotate(-45.00001)"/>
        <rect x="23.95637" y="46.18085" width="7.63781" height="7.63781" transform="translate(-27.21998 34.28469) rotate(-45.00001)"/>
      </g>
      <rect x="23.95581" y="23.95621" width="7.63781" height="7.63781" transform="translate(-11.50494 27.77484) rotate(-45.00001)"/>
    </g>
    <g>
      <g>
        <rect x="35.06818" y="79.51783" width="7.63781" height="7.63781" transform="translate(-47.53821 51.9061) rotate(-45.00001)"/>
        <rect x="35.06849" y="57.29318" width="7.63781" height="7.63781" transform="translate(-31.82292 45.39687) rotate(-45.00001)"/>
      </g>
      <g>
        <rect x="35.06822" y="35.06853" width="7.63781" height="7.63781" transform="translate(-16.10779 38.88723) rotate(-45.00001)"/>
        <rect x="35.06854" y="12.84388" width="7.63781" height="7.63781" transform="translate(-0.3925 32.378) rotate(-45.00001)"/>
      </g>
    </g>
    <g>
      <g>
        <rect x="46.18062" y="68.40551" width="7.63781" height="7.63781" transform="translate(-36.42585 56.50906) rotate(-45.00001)"/>
        <rect x="46.18123" y="46.18086" width="7.63781" height="7.63781" transform="translate(-20.71047 50.00004) rotate(-45.00001)"/>
        <rect x="25.86387" y="41.58059" width="7.63781" height="65.10296" transform="translate(-43.72543 42.70173) rotate(-45.00004)"/>
      </g>
      <g>
        <rect x="46.18066" y="23.95621" width="7.63781" height="7.63781" transform="translate(-4.99543 43.49019) rotate(-45.00001)"/>
        <rect x="46.18127" y="1.73156" width="7.63781" height="7.63781" transform="translate(10.71995 36.98117) rotate(-45.00001)"/>
      </g>
    </g>
    <g>
      <g>
        <rect x="36.06092" y="28.25902" width="7.63781" height="67.69126" transform="translate(-32.2341 46.38938) rotate(-45.00004)"/>
        <rect x="57.29335" y="57.29318" width="7.63781" height="7.63781" transform="translate(-25.31341 61.11222) rotate(-45.00001)"/>
      </g>
      <g>
        <rect x="57.29308" y="35.06854" width="7.63781" height="7.63781" transform="translate(-9.59828 54.60258) rotate(-45.00001)"/>
        <rect x="57.2934" y="12.84389" width="7.63781" height="7.63781" transform="translate(6.11701 48.09335) rotate(-45.00001)"/>
      </g>
    </g>
    <g>
      <g>
        <rect x="46.90642" y="16.50225" width="7.63781" height="68.44628" transform="translate(-21.01116 50.72539) rotate(-45.00004)"/>
        <rect x="68.40608" y="46.18086" width="7.63781" height="7.63781" transform="translate(-14.20096 65.71539) rotate(-45.00001)"/>
      </g>
      <rect x="68.40552" y="23.95621" width="7.63781" height="7.63781" transform="translate(1.51408 59.20554) rotate(-45.00001)"/>
    </g>
    <g>
      <rect x="59.31552" y="8.51964" width="7.63781" height="64.77959" transform="translate(-10.43568 56.62493) rotate(-45.00004)"/>
      <rect x="79.51794" y="35.06854" width="7.63781" height="7.63781" transform="translate(-3.08877 70.31793) rotate(-45.00001)"/>
    </g>
    <rect x="70.46629" y="-2.50085" width="7.63781" height="64.672" transform="translate(0.66101 61.26613) rotate(-45.00004)"/>
  </g>
</svg>
