<svg id="Layer_1" data-name="Layer 1" xmlns="http://www.w3.org/2000/svg" width="100" height="100" viewBox="0 0 100 100">
  <g>
    <g>
      <circle cx="27.26266" cy="4.52469" r="5.52533"/>
      <circle cx="15.894" cy="4.52469" r="5.52533"/>
      <circle cx="38.63133" cy="4.52499" r="5.52533"/>
      <circle cx="50" cy="4.52529" r="5.52533"/>
      <circle cx="61.36867" cy="4.52559" r="5.52533"/>
      <circle cx="72.73734" cy="4.52589" r="5.52533"/>
      <circle cx="84.106" cy="4.52589" r="5.52533"/>
      <circle cx="95.47467" cy="4.52499" r="5.52533"/>
      <circle cx="4.52533" cy="4.52499" r="5.52533"/>
    </g>
    <g>
      <circle cx="27.26266" cy="15.89337" r="5.52533"/>
      <circle cx="15.894" cy="15.89337" r="5.52533"/>
      <circle cx="38.63133" cy="15.89367" r="5.52533"/>
      <circle cx="50" cy="15.89397" r="5.52533"/>
      <circle cx="61.36867" cy="15.89427" r="5.52533"/>
      <circle cx="72.73734" cy="15.89457" r="5.52533"/>
      <circle cx="84.106" cy="15.89457" r="5.52533"/>
      <circle cx="95.47467" cy="15.89367" r="5.52533"/>
      <circle cx="4.52533" cy="15.89367" r="5.52533"/>
    </g>
    <g>
      <circle cx="27.26266" cy="27.26205" r="5.52533"/>
      <circle cx="15.894" cy="27.26205" r="5.52533"/>
      <circle cx="38.63133" cy="27.26235" r="5.52533"/>
      <circle cx="50" cy="27.26265" r="5.52533"/>
      <circle cx="61.36867" cy="27.26295" r="5.52533"/>
      <circle cx="72.73734" cy="27.26325" r="5.52533"/>
      <circle cx="84.106" cy="27.26325" r="5.52533"/>
      <circle cx="95.47467" cy="27.26235" r="5.52533"/>
      <circle cx="4.52533" cy="27.26235" r="5.52533"/>
    </g>
    <g>
      <circle cx="27.26266" cy="38.63072" r="5.52533"/>
      <circle cx="15.894" cy="38.63072" r="5.52533"/>
      <circle cx="38.63133" cy="38.63102" r="5.52533"/>
      <circle cx="50" cy="38.63132" r="5.52533"/>
      <circle cx="61.36867" cy="38.63162" r="5.52533"/>
      <circle cx="72.73734" cy="38.63192" r="5.52533"/>
      <circle cx="84.106" cy="38.63192" r="5.52533"/>
      <circle cx="95.47467" cy="38.63102" r="5.52533"/>
      <circle cx="4.52533" cy="38.63102" r="5.52533"/>
    </g>
    <g>
      <circle cx="27.26266" cy="49.9994" r="5.52533"/>
      <circle cx="15.894" cy="49.9994" r="5.52533"/>
      <circle cx="38.63133" cy="49.9997" r="5.52533"/>
      <circle cx="50" cy="50" r="5.52533"/>
      <circle cx="61.36867" cy="50.0003" r="5.52533"/>
      <circle cx="72.73734" cy="50.0006" r="5.52533"/>
      <circle cx="84.106" cy="50.0006" r="5.52533"/>
      <circle cx="95.47467" cy="49.9997" r="5.52533"/>
      <circle cx="4.52533" cy="49.9997" r="5.52533"/>
    </g>
    <g>
      <circle cx="27.26266" cy="61.36808" r="5.52533"/>
      <circle cx="15.894" cy="61.36808" r="5.52533"/>
      <circle cx="38.63133" cy="61.36838" r="5.52533"/>
      <circle cx="50" cy="61.36868" r="5.52533"/>
      <circle cx="61.36867" cy="61.36898" r="5.52533"/>
      <circle cx="72.73734" cy="61.36928" r="5.52533"/>
      <circle cx="84.106" cy="61.36928" r="5.52533"/>
      <circle cx="95.47467" cy="61.36838" r="5.52533"/>
      <circle cx="4.52533" cy="61.36838" r="5.52533"/>
    </g>
    <g>
      <circle cx="27.26266" cy="72.73675" r="5.52533"/>
      <circle cx="15.894" cy="72.73675" r="5.52533"/>
      <circle cx="38.63133" cy="72.73705" r="5.52533"/>
      <circle cx="50" cy="72.73735" r="5.52533"/>
      <circle cx="61.36867" cy="72.73765" r="5.52533"/>
      <circle cx="72.73734" cy="72.73795" r="5.52533"/>
      <circle cx="84.106" cy="72.73795" r="5.52533"/>
      <circle cx="95.47467" cy="72.73705" r="5.52533"/>
      <circle cx="4.52533" cy="72.73705" r="5.52533"/>
    </g>
    <g>
      <circle cx="27.26266" cy="84.10543" r="5.52533"/>
      <circle cx="15.894" cy="84.10543" r="5.52533"/>
      <circle cx="38.63133" cy="84.10573" r="5.52533"/>
      <circle cx="50" cy="84.10603" r="5.52533"/>
      <circle cx="61.36867" cy="84.10633" r="5.52533"/>
      <circle cx="72.73734" cy="84.10663" r="5.52533"/>
      <circle cx="84.106" cy="84.10663" r="5.52533"/>
      <circle cx="95.47467" cy="84.10573" r="5.52533"/>
      <circle cx="4.52533" cy="84.10573" r="5.52533"/>
    </g>
    <g>
      <circle cx="27.26266" cy="95.47411" r="5.52533"/>
      <circle cx="15.894" cy="95.47411" r="5.52533"/>
      <circle cx="38.63133" cy="95.47441" r="5.52533"/>
      <circle cx="50" cy="95.47471" r="5.52533"/>
      <circle cx="61.36867" cy="95.47501" r="5.52533"/>
      <circle cx="72.73734" cy="95.47531" r="5.52533"/>
      <circle cx="84.106" cy="95.47531" r="5.52533"/>
      <circle cx="95.47467" cy="95.47441" r="5.52533"/>
      <circle cx="4.52533" cy="95.47441" r="5.52533"/>
    </g>
  </g>
</svg>
