<svg viewBox="0 0 100 100" xmlns="http://www.w3.org/2000/svg"><path d="m85.38885 0h-21.70507c17.0581 18.1543 19.9226 38.60272 19.21972 52.834-1.0459 21.15019-9.90478 39.06859-17.02075 47.166h20.58716a106.13793 106.13793 0 0 0 13.41209-46.32617 87.53983 87.53983 0 0 0 -14.49315-53.67383z"/><path d="m21.70508 0h-21.70508c17.05811 18.1543 19.92261 38.60272 19.21973 52.834-1.0459 21.15019-9.90479 39.06859-17.02073 47.166h20.58713a106.13793 106.13793 0 0 0 13.41211-46.32617 87.53988 87.53988 0 0 0 -14.49316-53.67383z"/></svg>