<svg viewBox="0 0 100 100" xmlns="http://www.w3.org/2000/svg"><path d="m100 72.28c-6.43677-2.85694-12.79248-2.50965-17.84766-2.22724-6.47949.36329-9.748.38477-13.22265-3.09179-3.47461-3.47461-3.4541-6.74219-3.08985-13.21973.40723-7.25293.96582-17.18652-8.042-26.19531-9.00879-9.00684-18.94043-8.45215-26.19531-8.041-6.47754.36133-9.74609.38574-13.21973-3.08886-3.4746-3.47466-3.45311-6.74322-3.0888-13.22076.05688-1.01446.114-2.08587.15039-3.19531h-15.44439v18.74091a27.1048 27.1048 0 0 0 6.36133 9.69561c9.00879 9.00782 18.9414 8.45313 26.19531 8.041 6.47266-.36231 9.74512-.38672 13.21973 3.08984 3.47461 3.47461 3.4541 6.74219 3.08984 13.21973-.40723 7.25293-.96582 17.18652 8.042 26.19531 9.00879 9.00879 18.94532 8.45215 26.19629 8.04395 6.4834-.36328 9.74805-.38477 13.22266 3.09179 2.821 2.82111 3.33862 5.50623 3.23926 9.88184h.43358z"/></svg>