<svg id="Layer_1" data-name="Layer 1" xmlns="http://www.w3.org/2000/svg" viewBox="0 0 100 100"><path d="M100,44c-10.24609,0-14.93945-8.85059-17.85938-14.707-.63574-1.27539-1.56835-3.14551-2.36621-4.39356-.79785,1.248-1.73144,3.11914-2.36718,4.39454C74.4873,35.14941,70.07422,44,59.82812,44S45.16992,35.14941,42.25,29.293c-.63574-1.27442-1.56738-3.14356-2.36523-4.39258-.79786,1.249-1.7295,3.11816-2.36524,4.39258C34.60059,35.14941,30.1875,44,19.94238,44,9.69629,44,5.2832,35.14941,2.36328,29.292,1.44629,27.45215,0,25,0,25V7c10.24512,0,14.6582,8.85059,17.57812,14.707.63477,1.27442,1.56641,3.14258,2.36426,4.3916.79688-1.248,1.72852-3.11718,2.36328-4.39062C25.22559,15.85059,29.63867,7,39.88477,7s14.6582,8.85059,17.5791,14.707c.63476,1.27442,1.56738,3.14453,2.36425,4.39258.79786-1.248,1.73047-3.11816,2.36622-4.39258C65.11426,15.85059,69.52832,7,79.77441,7s14.65918,8.85059,17.57911,14.70605C98.27148,23.54688,100,27,100,27Z"/><path d="M100,88c-10.24609,0-14.93945-8.85059-17.85938-14.707-.63574-1.27539-1.56835-3.14551-2.36621-4.39356-.79785,1.248-1.73144,3.11914-2.36718,4.39454C74.4873,79.14941,70.07422,88,59.82812,88S45.16992,79.14941,42.25,73.293c-.63574-1.27442-1.56738-3.14356-2.36523-4.39258-.79786,1.249-1.7295,3.11816-2.36524,4.39258C34.60059,79.14941,30.1875,88,19.94238,88,9.69629,88,5.2832,79.14941,2.36328,73.292,1.44629,71.45215,0,69,0,69V51c10.24512,0,14.6582,8.85059,17.57812,14.707.63477,1.27442,1.56641,3.14258,2.36426,4.3916.79688-1.248,1.72852-3.11718,2.36328-4.39062C25.22559,59.85059,29.63867,51,39.88477,51s14.6582,8.85059,17.5791,14.707c.63476,1.27442,1.56738,3.14453,2.36425,4.39258.79786-1.248,1.73047-3.11816,2.36622-4.39258C65.11426,59.85059,69.52832,51,79.77441,51s14.65918,8.85059,17.57911,14.70605C98.27148,67.54688,100,71,100,71Z"/></svg>