<svg width="100" height="100" viewBox="0 0 100 100" fill="none" xmlns="http://www.w3.org/2000/svg">
<g >
<path d="M6.72 71H22.74C37.8 71 46.62 62 46.62 49.88V49.76C46.62 37.64 37.92 29 22.98 29H6.72V71ZM23.1 39.26C30.12 39.26 34.74 43.22 34.74 49.94V50.06C34.74 56.84 30.12 60.68 23.1 60.68H18.36V39.26H23.1ZM72.9375 71.84C82.1775 71.84 87.5175 67.82 91.4775 62.36L82.7175 56.12C80.1975 59.18 77.6175 61.22 73.2375 61.22C67.3575 61.22 63.2175 56.3 63.2175 50V49.88C63.2175 43.76 67.3575 38.72 73.2375 38.72C77.2575 38.72 80.0175 40.7 82.4175 43.64L91.1775 36.86C87.4575 31.76 81.9375 28.16 73.3575 28.16C60.6375 28.16 51.2775 37.76 51.2775 50V50.12C51.2775 62.66 60.9375 71.84 72.9375 71.84Z" fill="black"/>
</g>
<defs>
<clipPath id="clip0">
<rect width="100" height="100" fill="white"/>
</clipPath>
</defs>
</svg>
