<svg width="100" height="100" viewBox="0 0 100 100" fill="none" xmlns="http://www.w3.org/2000/svg">
<g >
<path d="M0.286 69H10.568V57.764H15.126L22.599 69H34.418L25.567 56.068C30.178 54.107 33.199 50.344 33.199 44.62V44.514C33.199 40.857 32.086 38.048 29.913 35.875C27.422 33.384 23.5 31.9 17.829 31.9H0.286V69ZM10.568 49.708V40.751H17.352C20.744 40.751 22.917 42.235 22.917 45.203V45.309C22.917 48.012 20.85 49.708 17.405 49.708H10.568ZM47.4428 64.018H56.6648V54.796H65.9928V45.892H56.6648V36.67H47.4428V45.892H38.1148V54.796H47.4428V64.018ZM81.3441 64.018H90.5661V54.796H99.8941V45.892H90.5661V36.67H81.3441V45.892H72.0161V54.796H81.3441V64.018Z" fill="black"/>
</g>
<defs>
<clipPath id="clip0">
<rect width="100" height="100" fill="white"/>
</clipPath>
</defs>
</svg>
