<svg width="100" height="100" viewBox="0 0 100 100" fill="none" xmlns="http://www.w3.org/2000/svg">
<g >
<path d="M12.72 71H24.36V58.28H29.52L37.98 71H51.36L41.34 56.36C46.56 54.14 49.98 49.88 49.98 43.4V43.28C49.98 39.14 48.72 35.96 46.26 33.5C43.44 30.68 39 29 32.58 29H12.72V71ZM24.36 49.16V39.02H32.04C35.88 39.02 38.34 40.7 38.34 44.06V44.18C38.34 47.24 36 49.16 32.1 49.16H24.36ZM90.705 53.24H85.125L86.325 46.46H92.685V36.86H87.945L89.325 29H80.685L79.305 36.86H71.685L73.065 29H64.365L62.985 36.86H55.905V46.46H61.365L60.165 53.24H53.925V62.9H58.545L57.165 71H65.865L67.245 62.9H74.865L73.485 71H82.125L83.505 62.9H90.705V53.24ZM69.825 46.1H78.045L76.725 53.6H68.565L69.825 46.1Z" fill="black"/>
</g>
<defs>
<clipPath id="clip0">
<rect width="100" height="100" fill="white"/>
</clipPath>
</defs>
</svg>
