<svg width="100" height="100" viewBox="0 0 100 100" fill="none" xmlns="http://www.w3.org/2000/svg">
<g >
<path d="M6.72 71H18.36V58.28H23.52L31.98 71H45.36L35.34 56.36C40.56 54.14 43.98 49.88 43.98 43.4V43.28C43.98 39.14 42.72 35.96 40.26 33.5C37.44 30.68 33 29 26.58 29H6.72V71ZM18.36 49.16V39.02H26.04C29.88 39.02 32.34 40.7 32.34 44.06V44.18C32.34 47.24 30 49.16 26.1 49.16H18.36ZM49.845 71H65.865C80.925 71 89.745 62 89.745 49.88V49.76C89.745 37.64 81.045 29 66.105 29H49.845V71ZM66.225 39.26C73.245 39.26 77.865 43.22 77.865 49.94V50.06C77.865 56.84 73.245 60.68 66.225 60.68H61.485V39.26H66.225Z" fill="black"/>
</g>
<defs>
<clipPath id="clip0">
<rect width="100" height="100" fill="white"/>
</clipPath>
</defs>
</svg>
