<svg width="100" height="100" viewBox="0 0 100 100" fill="none" xmlns="http://www.w3.org/2000/svg">
<g >
<path d="M12.72 71H28.74C43.8 71 52.62 62 52.62 49.88V49.76C52.62 37.64 43.92 29 28.98 29H12.72V71ZM29.1 39.26C36.12 39.26 40.74 43.22 40.74 49.94V50.06C40.74 56.84 36.12 60.68 29.1 60.68H24.36V39.26H29.1ZM58.6575 71H70.2975V59H76.1175C86.4975 59 94.1175 53.78 94.1175 43.82V43.7C94.1175 34.46 87.2775 29 76.7175 29H58.6575V71ZM70.2975 49.88V38.78H75.8175C79.9575 38.78 82.5375 40.64 82.5375 44.24V44.36C82.5375 47.66 79.9575 49.88 75.8775 49.88H70.2975Z" fill="black"/>
</g>
<defs>
<clipPath id="clip0">
<rect width="100" height="100" fill="white"/>
</clipPath>
</defs>
</svg>
