<svg viewBox="0 0 100 100" xmlns="http://www.w3.org/2000/svg"><path d="m69.21 52.08a14.57 14.57 0 0 1 -2.21 1.29 14.57 14.57 0 0 0 -1.56 1c-.43.35-.48 1-1 1.11a12.3 12.3 0 0 1 -2.2-.36c-.57 0-1-.43-1.19.27s.5 3.33.23 3.88-1.28-.12-1.83-.6a13.93 13.93 0 0 1 -1.52-2.23c-.4-.57-.73-.63-.93-1.15s-.14-1.56-.27-1.94.1-.75-.56-.3a41.65 41.65 0 0 1 -3.39 3 10.44 10.44 0 0 1 -3.9 1.41 4.15 4.15 0 0 1 -3-.65c-.49-.54-.29-1.73.08-2.59a13.78 13.78 0 0 1 2.12-2.61c.6-.72 1.43-1.16 1.51-1.73s-1-1.14-1-1.68a1.62 1.62 0 0 1 .62-1.55 6 6 0 0 1 2.43-.47c.78 0 1.72.25 2.26.23s.77 0 1-.3.24-.52.27-1.29-.17-1.71-.1-3.35 0-5.12.49-6.51 1.53-.52 2.66-1.85 2.67-5 4.1-6.09 2.89-.36 4.5-.48a24.42 24.42 0 0 1 5.18-.23c1.67.23 3.74.56 4.83 1.69a7.11 7.11 0 0 1 1.72 5.1c-.12 2-2.16 5-2.43 6.67s.85 2.33.85 3.53.24 2.53-.8 3.67-4.31 2.29-5.47 3.14-.85 1.42-1.45 2"/><path d="m81 54.48c-1.25 1.11-3.47 1.69-4.51 2.63s-1 2.16-1.74 3a5.17 5.17 0 0 1 -3 1.91c-1.31.16-3.74-1.09-4.86-1s-1.49.34-1.86 1.73.32 5.83-.4 6.62-2.74-.77-3.89-1.83a20.26 20.26 0 0 1 -3-4.56c-.76-1.38-1.12-2.83-1.56-3.75s-.56-1.58-1.08-1.74-.85 0-2.07.74-3 2.38-5.28 3.53-6.34 3.2-8.43 3.35a4.52 4.52 0 0 1 -4.14-2.48 5.92 5.92 0 0 1 -.24-4.7c.56-1.59 2.53-3.48 3.57-4.85s2.36-2.29 2.65-3.37-.79-2.08-.92-3.16-.54-2.51.14-3.3a6 6 0 0 1 3.91-1.47c1.55-.08 4.28 1.09 5.38 1s.87-.88 1.24-1.51.85-.62 1-2.31-.61-4.65-.38-7.83.54-8.64 1.72-11.24 3.09-1.72 5.37-4.35 5.38-9.37 8.3-11.42 5.87-.78 9-.85a44.4 44.4 0 0 1 9.88.44c3.2.66 7.39 1.16 9.35 3.53s2.66 6.88 2.4 10.72-3.77 9.17-4 12.3 2.45 4.22 2.8 6.52 1.36 5-.71 7.25-9.21 4.68-11.64 6.42-1.72 2.92-3 4"/><path d="m100 49.51a21.11 21.11 0 0 0 -1.92 1.54c-3.74 2.63-3 4.4-4.9 6.11"/><path d="m93.18 57.16c-1.91 1.7-5.37 2.44-6.54 4.12s.65 4.64-.5 6-4.13 1.82-6.4 2-5.64-1.53-7.23-1-1.59 2.16-2.29 4.25-.57 7.44-1.92 8.28-4.38-1.59-6.19-3.25a23.61 23.61 0 0 1 -4.66-6.7c-1.13-2.37-1.35-6.32-2.16-7.52s-1.51-.07-2.66.33-2.51 1.35-4.24 2-2.89.87-6.11 2.09-10.34 5.24-13.28 5.24-3.35-3-4.12-5a10.27 10.27 0 0 1 -.5-6.73c.72-2.28 3.38-5 4.81-6.94s3.12-3.4 3.77-5 .09-2.88.11-4.41-.67-3.46 0-4.76a5.23 5.23 0 0 1 4-3c2-.23 6.69 1.87 8.3 1.64s.91-1.8 1.32-3.06a11.63 11.63 0 0 0 1.17-4.49c.18-2.73-.65-7.57-.07-11.88s1.6-10.37 3.54-14.02c1.45-2.73 3.31-3.54 5.61-5.48"/><path d="m100 63a7.34 7.34 0 0 0 -2.72 2.9c-1.19 2.53 3 7.81 1.28 9.47s-8.69.13-11.86.5-5.4.34-7.14 1.76-2 4.18-3.28 6.77-2.13 7.94-4.25 8.8-6-1.84-8.48-3.69a22 22 0 0 1 -6.67-7.43c-1.65-3.16-1.89-10-3.24-11.53s-3.09 1.72-4.86 2.31a46.89 46.89 0 0 1 -5.78 1.14c-2.28.44-3.58.08-7.88 1.4s-14.27 6.73-18 6.48-3.39-5.07-4.12-7.88-1.5-6.08-.44-9.17 4.81-6.69 6.81-9.34 4.08-4.57 5.21-6.61.94-3.8 1.55-5.61a27.36 27.36 0 0 1 2.06-5.27c.94-1.6 1.63-3.63 3.58-4.34s6.34.67 8.12.09 2.14-1.45 2.58-3.57-.18-5.36.08-9.18.34-8.84 1.54-13.76c.55-2.28 1.69-4.65 2.52-7.19"/><path d="m0 66.56c2.23-3.24 6.12-7.36 8.16-10 2.66-3.43 4.7-5.9 6.43-8.46s2.4-4.81 4-6.84a49.8 49.8 0 0 1 5.49-5.32 59.7 59.7 0 0 0 4.85-4.47c1.34-1.62 1.76-3.83 3.19-5.2s4.65-.08 5.38-3-1.47-9.68-1-14.61c.27-3 1.58-5.65 2.44-8.64"/><path d="m58.48 99.92a8.58 8.58 0 0 1 -2.55-2.49c-2.33-3.43-2.93-13.43-5-15.54s-5.15 3-7.46 3.2-3.41-2.29-6.41-2.23-5.75.94-11.54 2.59-18.94 8.15-23.22 7.29c-1.07-.22-1.91-2-2.3-2.93"/><path d="m100 82.4c-3.4-.91-6.8-2-8.4-1.61-3.78 1-1.79 5.91-3.19 8.84a44.22 44.22 0 0 1 -5.22 8.77c-.34.42-.8 1.14-1.16 1.6"/><path d="m0 52c.94-1.29 2-3.63 3-4.84 2.5-3.13 4.42-5.9 7.08-8.18s6.35-3.81 8.88-5.51 5.6-2 6.27-4.7-3.23-9.01-2.23-11.4 7 .67 8.15-3c.89-2.75 0-9.08-.44-14.38"/><path d="m50 100c-.68-2.15-1.48-4.17-2.41-4.91-2.93-2.35-7.52 4.4-10.47 4.1s-3.45-5.48-7.25-5.87-8.27 1.73-15.56 3.53c-2.43.6-5.85 1.8-9.5 3.07"/><path d="m100 85.36a5.66 5.66 0 0 0 -3.28.75c-3.27 1.48.21 8.76 1.21 13.89"/><path d="m.41 36.17c3.92-2.62 8.77-4 11.54-6.2s4.75-3.44 5-7.11-4.22-11.48-3.28-14.93 7.17-1.48 8.93-5.77a12.14 12.14 0 0 0 .74-2.16"/><path d="m.19 28.19a9.71 9.71 0 0 0 3.34-2.44c2.56-3.16.81-7.22.83-11.93 0-4-1.32-9.53-1.05-14"/></svg>