<svg viewBox="0 0 100 100" xmlns="http://www.w3.org/2000/svg"><path d="m92.32 29.77a13.39 13.39 0 0 1 -2 3.06 30.54 30.54 0 0 1 -2.32 2.57c-.77.8-1.3 1.83-2.34 2.23s-2.91-.19-3.87.2-1.17 1.53-1.88 2.17-1.46 1.59-2.39 1.61-2.22-1.07-3.16-1.49-1.79-.24-2.47-1-1-3-1.66-3.54-1.4.58-2 .53-.91-.79-1.68-.83-2.17.73-3 .59a3 3 0 0 1 -1.85-1.4 10.67 10.67 0 0 1 -.6-2.32 4.71 4.71 0 0 0 -.89-2c-.58-.63-2.08-1.05-2.57-1.77a2.51 2.51 0 0 1 -.4-2.53c.44-.76 2.19-1.46 3-2s1.79-.8 2.06-1.44-.18-1.32-.49-2.36-1.52-3-1.39-3.87 1.5-.93 2.18-1.49a9.93 9.93 0 0 0 1.88-1.85c.6-.82 1-2 1.72-3s1.52-2.68 2.51-3.1 2.26.58 3.39.56 2.34-.79 3.44-.67a6.27 6.27 0 0 1 3.15 1.36c.88.73 1.41 2.13 2.13 3a10.24 10.24 0 0 0 2.18 2.1 18 18 0 0 0 3 1.34 23.19 23.19 0 0 1 3.77 1.57 10.08 10.08 0 0 1 2.79 2.77 7.64 7.64 0 0 1 1.38 3.61c0 1.24-.85 2.61-1.12 3.85s-.07 2.48-.5 3.59"/><path d="m99.92 48.32c-.5.23-1 .45-1.5.64-2.11.82-4.81.68-6.68 1.41a18.7 18.7 0 0 0 -4.58 3c-1.51 1.12-2.66 3.71-4.45 3.75s-4.48-2.4-6.34-3.48a33 33 0 0 1 -4.8-3c-1.4-1.16-2.45-3-3.58-4a12.5 12.5 0 0 0 -3.16-1.93c-1.08-.53-1.68-1.38-3.31-1.25s-4.63 2.05-6.43 2a6.07 6.07 0 0 1 -4.39-2.2c-.94-1.16-1-3.19-1.3-4.72s.27-3.17-.71-4.51-4.53-2.1-5.12-3.52.55-3.5 1.62-5 3.72-2.51 4.81-3.79a7.58 7.58 0 0 0 1.57-3.57 8.19 8.19 0 0 0 .43-4.15c-.32-1.93-2.73-5.75-2.37-7.43s3.21-1.46 4.5-2.62a23.58 23.58 0 0 0 3.24-4.34"/><path d="m99.92 64.54a56.82 56.82 0 0 0 -5.59 2.59c-2.44 1.36-4.28 4.82-7 4.69s-6.59-3.77-9.3-5.49-4.84-3.56-7-4.8-4.21-1-5.76-2.63-2.15-5.52-3.55-6.9-2.26-1.9-4.84-1.39-7.71 4.23-10.64 4.46a8.48 8.48 0 0 1 -6.88-3.07c-1.44-1.73-1.46-4.88-1.73-7.3s1.26-5.11.1-7.19-6.73-3.26-7.08-5.33 3.16-5.06 4.91-7.13 5-3.33 5.64-5.32-2.2-4.67-1.91-6.61 3.3-2.51 3.46-5c.12-1.94-1.75-5.41-2.35-7.99"/><path d="m99.92 83.57c-2.84 1-5.77 2-8.77 1.37-3.81-.76-8.34-4.84-11.81-6.7s-6.21-3.17-9-4.48-5.8-1-7.77-3.33-2.36-8.82-4.09-11-2.58-2.82-6.26-1.81-11.79 7.42-15.79 7.85-6.71-2.66-8.25-5.28-.88-7.11-1-10.4 1.59-6.6.19-9.33-8.4-4.34-8.58-7 5.06-6.46 7.5-9.08 7.09-3.8 7.1-6.61-7.08-7.62-7-10.25 6.19-2.66 7.24-5.52a4.72 4.72 0 0 0 .18-2"/><path d="m99.92 98.45c-1.94-.51-3.85-1.12-5.62-1.71-5-1.7-9.79-5.84-14-7.38s-7.64-.28-11-1.82a26.35 26.35 0 0 1 -9.3-7.41c-2.5-3.14-3.45-9.06-5.68-11.46s-2.74-4.37-7.65-2.91-16.8 11.24-21.82 11.69-7.16-5-8.31-8.89 1.32-10.22 1.46-14.43 1.22-7.6-.81-10.84-11.19-5.29-11.4-8.57 7-8 10.33-11.16 10-4.19 9.59-7.82-11.81-10.51-12.23-13.98a2 2 0 0 1 .64-1.76"/><path d="m-.12 27.06c2.12-1.65 4.12-3.22 5.62-4.55 4.11-3.72 12.61-4.68 11.82-9.13-.57-3.27-8.78-8.89-13.42-13.38"/><path d="m65.1 99.88c-2.91-2.59-5.62-6.65-8-9.42-3.1-3.68-5.1-8.17-7.93-10.69s-3.2-6-9.22-4.41-21.19 13.75-26.9 13.86-6.87-7.96-7.41-13.22 3.84-13.25 4.15-18.3.59-8.33-2.26-12c-1.33-1.7-4.53-3.14-7.7-4.59"/><path d="m-.38 18.57c4.21-2.41 8.82-4.1 7.94-8-.5-2.25-3.77-5.38-7.46-8.64"/><path d="m48.5 99.88a50.63 50.63 0 0 0 -5.73-6.65c-3.51-3.11-4.26-7.58-10.79-6.77s-22.71 12.54-28.41 11.65a5.08 5.08 0 0 1 -3.69-2.94"/></svg>