<svg viewBox="0 0 100 100" xmlns="http://www.w3.org/2000/svg"><path d="m67.1 44.5c-.4 1.1-1 2-1.4 3.1a24.48 24.48 0 0 1 -.9 3.2c-.5.9-1.7 1.5-2.3 2.4s-.7 2.6-1.5 3.3-2.3.7-3.3 1.2-1.8 1.5-2.9 2-2.2.7-3.3 1.3-2.3 1.9-3.6 2.2a5.77 5.77 0 0 1 -3.9-.1c-1.2-.5-2.1-2.1-3.1-3s-1.9-1.6-2.7-2.4-1.2-2.1-2.2-2.7-3-.3-3.7-1.2.1-2.8-.3-3.9a8.62 8.62 0 0 0 -2-2.7c-.8-.9-2.4-1.8-2.6-2.9s.9-2.5 1.3-3.7a17.55 17.55 0 0 1 1.2-3.2 7 7 0 0 1 2.2-2.6 6.28 6.28 0 0 1 3.3-1.5c1.4-.1 4 1 4.9.8s.3-1.6.9-1.8 1.9.6 2.5.5.9-.6 1.3-1 .9-.8 1.5-1.3 1-.3 1.8-1.7 2.3-5.8 3.4-6.9 2.3 0 3.4.3 2 1 3.2 1.4a20.63 20.63 0 0 0 4 .7c1.4.3 3.2.3 5.2.7s4.8.4 6.6 1.3a9.33 9.33 0 0 1 4.3 4c.7 1.6 1.6 3.9-.1 5.7s-8.6 3.8-10.4 5.2c-2 1.4-.5 2.3-.8 3.3"/><path d="m100 35.7c-5.3 2.2-11.6 4.3-14 6-3.9 2.7-1.1 4.3-1.8 6.4"/><path d="m84.2 48c-.8 2-2.1 3.7-2.7 5.8s.4 5.1-.8 6.8-4.7 1.7-6 3.6-.4 5.9-1.6 7.8-3.8 2.7-5.8 3.7a31.13 31.13 0 0 1 -6.5 2.2c-2.2.5-4.5-.1-6.7 1s-4.4 4.6-6.8 5.4-5.2.2-7.6-.4-4.6-2.3-6.8-3.5-4.7-1.9-6.3-3.8-1.5-5.6-3.3-7.2-6.3-.5-7.6-2.3.7-6 .2-8.4-2.3-3.6-3.4-5.6-2.6-3.9-3.2-6.1a17.43 17.43 0 0 1 -.5-6.8 17.9 17.9 0 0 1 2.5-6.5 16.19 16.19 0 0 1 5-5.1 22.15 22.15 0 0 1 7.2-2.6c2.5-.4 5.9.5 7.5-.1s1-3 2.2-3.5 3.6.6 5 .6a5.87 5.87 0 0 0 3.5-.8c1.1-.6 1.8-1.9 3-3.1s2.1-1.5 3.9-4.3 4.6-10.3 7-12.2 4.7.2 6.9.9 3.6 2.7 6.1 3.4 5.4.3 8.5.7 6 1.1 10 1.8c3.7.6 9.6.3 13.2 1.7"/><path d="m100 44.3c-2.5 2.8 0 4.7-1 7.1"/><path d="m0 23.9c.6-.4 1.3-.7 1.9-1.1 3.2-1.8 7.3-2.7 10.4-3.7s6.3-1 8.2-2.4 1.2-5.5 3-6.4 5.6.3 8 .5 4.6 1.3 6.5.7 3-2.2 4.8-4.3a67.71 67.71 0 0 0 5.5-7.3"/><path d="m17.7 99.7a9.09 9.09 0 0 1 -3.9-2.8c-2.3-3-1.1-10.3-3.5-13.2-2.1-2.5-7.7-1.5-10.2-3.1"/><path d="m99 51.4c-1.2 2.9-3.3 5.1-3.9 8.2s1.7 7.9 0 10.3-8.2 1.2-10 4 .7 9.6-.7 12.9-4.7 5.7-7.7 7-7.2 1-10.7 1-6.8-2.1-10.1-.8c-2.2.9-4.1 3.7-6.2 6"/><path d="m0 12.5c.5-.2.9-.4 1.3-.6 3.5-1.8 6.5-2.5 8.3-5.4.9-1.5.9-4.1.9-6.6"/><path d="m100 80.4c-2.3.3-4.5.9-5.4 2.6-2 3.5 1.4 12.2.4 17"/></svg>