<svg viewBox="0 0 100 100" xmlns="http://www.w3.org/2000/svg"><path d="m87.68 28.91a10.82 10.82 0 0 1 3.1 4.09 9.34 9.34 0 0 1 .53 4.36c-.08 1.43-.12 3.32-1 4.24s-3.18.59-4.36 1.27-1.72 2-2.75 2.87-2.08 2.39-3.44 2.08-3.45-2.82-4.76-3.88-2.35-.76-3.14-2.2-1-5.31-1.58-6.47-.89-.58-1.57-.48-1.68.91-2.5 1a7.66 7.66 0 0 1 -2.4-.24c-.85-.14-2.4 0-2.73-.59s.54-2.31.73-3.23.94-1.72.4-2.3-2.83-.63-3.62-1.23-1.47-1.64-1.16-2.37 1.72-1.6 3-2 3.84-.13 4.58-.47.1-.83-.1-1.56-.65-1.53-1.1-2.82-1.63-3.67-1.63-4.92.94-1.88 1.62-2.58a22 22 0 0 1 2.49-1.67c.85-.65 1.65-1.55 2.64-2.25a14.63 14.63 0 0 1 3.26-1.94 11.19 11.19 0 0 1 3.71-.62c1.25 0 2.82-.23 3.75.58a7.88 7.88 0 0 1 1.88 4.29c.27 1.6-.54 4.18-.27 5.34s.79 1.33 1.91 1.63 3.25-.16 4.84.15a14.36 14.36 0 0 1 4.72 1.72c1.31.84 5 2.1 3.19 3.34s-12.47 2.94-13.84 4.09 4.15 1.66 5.6 2.82"/><path d="m99.91 24.49a14.76 14.76 0 0 0 -4.58 1.92c-1.6 1.46 1.5 2.49 4.59 3.65"/><path d="m90.87-.11a12.27 12.27 0 0 0 .58 3.73c.82 2 1.93 2.64 3.84 3.52a19.55 19.55 0 0 0 4.62 1.16"/><path d="m99.91 59.58a4.76 4.76 0 0 0 -.49.28c-2.27 1.46-3.3 4.33-5.39 5.88s-4.43 4.13-7.16 3.44-6.66-5.5-9.23-7.56-4.59-2.14-6.18-4.75-2.31-8.69-3.34-10.87-1.6-2.23-2.87-2.39-2.93 1.08-4.7 1.48a23 23 0 0 1 -5.93.94c-1.89-.1-4.94-.07-5.42-1.53s2.24-5.36 2.56-7.24.38-2.85-.67-4-4.42-1.71-5.63-3-2.28-3.26-1.64-4.69 3.08-3.13 5.51-3.92 7.52-.21 9.08-.81.69-1.32.26-2.79-2-3.58-2.84-6-2.33-6.4-2.29-8.84a7.66 7.66 0 0 1 .83-3.29"/><path d="m99.91 88.94a9.31 9.31 0 0 1 -6.62.69c-4.14-1.29-9.71-8.1-13.45-11.18s-6.66-3.76-9-7.34-3.6-11-5.13-14.12-2.23-4.22-4-4.71-4 1-6.82 1.73-6.97 2.58-9.89 2.51-7.24-.52-7.72-2.9 4.43-8.62 4.83-11.39-.87-3.69-2.45-5.41-5.57-3-7-4.94-2.56-4.88-1.54-6.95 4.35-4.48 7.64-5.69 9.82-.7 12.12-1.56 2.14-1.45 1.67-3.6-3.36-5.73-4.55-9.3c-.46-1.43-1-3.08-1.43-4.78"/><path d="m87.85 100c-2.31-2.38-4.49-4.73-6.35-6.38-4.83-4.3-8.5-5.84-11.5-10.27s-4.74-12.48-6.72-16.35-2.76-6-5.18-6.65-5.62 1.81-9.31 2.76-9.18 3.21-12.88 2.93-8.72-1.43-9.35-4.58 5-10.66 5.57-14.3-.4-5.18-2.24-7.52-7.17-3.94-8.81-6.52-2.35-6.26-1-9 5.32-5.52 8.92-7.26 9.79-1.95 12.6-3.15 4.54-1.28 4.26-4.05c-.24-2.21-2.94-5.85-4.79-9.66"/><path d="m75.69 100a93.82 93.82 0 0 1 -6.58-7.76c-3.7-4.94-6.18-10.43-8.57-14.53s-2.78-9.18-5.78-10.09-7.61 3.38-12.22 4.63-11.14 3.4-15.48 2.75-9.45-2.76-10.55-6.46 3-11.27 3.92-15.74 2.87-7.86 1.57-11.03-7.89-4.89-9.42-8-1.14-7.21.23-10.4 4.7-6.49 8-8.76 8.79-3.38 12-4.91 7.3-.72 7-4.28c-.15-1.32-1.18-3.23-2.51-5.42"/><path d="m66.85 100c-3.79-4.53-6.78-7.24-9.35-11.18-2.84-4.34-2.86-12.23-6.5-13.42s-9.72 4.89-15.17 6.25-12.73 3-17.5 1.87-9.7-4.4-11.15-8.7 1.14-11.82 2.49-17.06 6.33-10.5 5.65-14.43-8.52-5.69-10-9.15-.1-8 1.23-11.61a25.83 25.83 0 0 1 6.76-10.12c3.09-2.74 8.3-4.52 11.78-6.35s9.58-.23 9.12-4.63a6.14 6.14 0 0 0 -.32-1.36"/><path d="m0 17.55a48.46 48.46 0 0 1 6.29-7.34 55.47 55.47 0 0 1 11.08-8c2.4-1.41 6.63-1.01 9.08-1.97"/><path d="m0 68.43c.59-2.62 1.35-5.22 2-7.5 1.66-5.87 8.11-12 7.38-16.36-.56-3.35-6-5.21-9.37-7.6"/><path d="m55.58 100c-.34-.46-.67-.93-1-1.4-3.43-4.81-4.3-11.51-8.61-12.71s-11.38 4.73-17.27 5.52-13.19 1.21-18.08-.73c-4.35-1.68-8.72-5.1-10.62-9.31"/><path d="m0 10.22a11 11 0 0 0 1.75-1.74c2.08-2.61 1.78-5.82 2.35-8.48"/><path d="m0 54.36c2.51-3.32 4.74-6.48 4.45-9-.24-2-2.11-3.47-4.45-4.78"/><path d="m18.67 100a44.09 44.09 0 0 1 -12.87-5.45c-1.9-1.18-3.94-2.46-5.8-3.91"/><path d="m4.75 99.92c-.9-.92-1.82-1.82-2.75-2.65-.62-.54-1.3-1-2-1.55"/></svg>