<svg viewBox="0 0 100 100" xmlns="http://www.w3.org/2000/svg">
    <path
        d="m69.05 42.23c-.23.71 0 1.52-.35 2.15s-1.17 1-1.51 1.62-.12 1.69-.54 2.24a4.34 4.34 0 0 1 -2 1c-.7.24-1.59 0-2.19.38s-.84 1.32-1.39 1.84a6.26 6.26 0 0 1 -1.93 1.32 4 4 0 0 1 -2.26.31 5.65 5.65 0 0 1 -2.07-1.39 15 15 0 0 1 -1.53-1.83c-.46-.56-.35-1.64-1.21-1.56s-3.11 2-3.94 2-.34-1.72-1-2.23-2.2-.36-3.05-.83-.9-1.35-2-2-4.15-1.1-4.65-2 1-2.41 1.68-3.44 1.89-1.81 2.39-2.68 0-2 .44-2.76 1.48-1.35 2.16-2 1.28-1.23 2-1.74a5.75 5.75 0 0 1 2.17-1.29c.86-.15 2.35 1 3 .39s.28-2.76.75-4 1.23-3.73 2.09-3.4 2.26 4.05 3.06 5.37a10.08 10.08 0 0 0 1.69 2.53c.58.46 1.23 0 1.75.24a2.66 2.66 0 0 1 1.37 1.13c.28.56-.07 1.83.32 2.23s1 .17 2 .17a29 29 0 0 1 3.67-.21c1.22.14 3 .4 3.64 1s.24 1.84 0 2.72a15 15 0 0 1 -1.61 2.6 12.8 12.8 0 0 0 -1 2.12" />
    <path
        d="m81.48 44.76a11.8 11.8 0 0 0 -1.94 3.89c-.54 1.35-.54 2.89-1.2 4.17a17.7 17.7 0 0 1 -2.52 3.54 13.08 13.08 0 0 1 -3 3.13c-1.23.73-3.08.41-4.31 1.22s-1.84 2.91-3.09 3.64-2.94.56-4.41.77-3 .74-4.43.45a12.28 12.28 0 0 1 -4.09-2.21c-1.23-.86-2.19-2.15-3.3-2.94s-1.69-1.82-3.32-1.84-4.78 1.93-6.5 1.74-2.22-2-3.87-2.88-4.74-.93-6-2.15-.19-3.61-1.78-5.18-6.93-2.44-7.77-4.23 1.69-4.5 2.72-6.48 2.89-3.53 3.46-5.42-.68-4.16-.06-5.88a11.34 11.34 0 0 1 3.77-4.47c1.51-1.2 3.66-1.85 5.29-2.71s2.89-2 4.53-2.44 4 .63 5.29-.36 1.54-3.64 2.68-5.57 2.5-6.21 4.15-6 4.18 5.14 5.76 7.13 2.45 3.94 3.73 4.79 2.93-.39 4 .34 1.71 2.61 2.17 4.06 0 3.61.58 4.62 1.29 1.2 2.77 1.47 3.85-.18 6.09.11 6.09.52 7.33 1.62-.23 3.38.15 5 2.55 3.31 2.09 4.82-3.71 2.89-4.84 4.25" />
    <path d="m100 45.2a29.75 29.75 0 0 0 -5.29 2.47" />
    <path
        d="m60.6 0c1.24 1.71 2.4 3.43 3.68 4.23 2.11 1.29 5-.69 6.53.7s2.45 5 3 7.67-.25 6.21.21 8.19 1 2.87 2.54 3.67 4 .64 7 1.14 9 .42 10.89 1.88-1.59 4.57.4 6.87c.83 1 3 1.95 5.21 2.93" />
    <path
        d="m94.7 47.67c-2.7 2-3.86 3.23-4.53 5.4s1.54 5.76.53 7.58-5 1.72-6.6 3.33-1.51 4.75-3 6.29-4.15 1.66-6 2.93-3.26 4.08-5.35 4.7-4.88-1-7.16-1-4.37 1-6.51.81a20.53 20.53 0 0 1 -6.3-1.89c-2-.88-3.6-2.47-5.51-3.35a20 20 0 0 0 -6-1.89c-2.37-.33-5.56.39-8.25-.08a36.55 36.55 0 0 1 -7.92-2.74c-2.73-1.17-7.08-2-8.46-4.23s1.71-6.49.22-9.11-8.07-4-9.15-6.62 1.67-6.25 2.66-9.12 2.86-5.26 3.31-8.13-1.28-6.31-.6-9.06a13.94 13.94 0 0 1 4.67-7.42c2.3-1.79 6.42-2.29 9.17-3.38s5-2.09 7.31-3.13 4.48-1.7 6.49-3.13a32.09 32.09 0 0 0 4.55-4.43" />
    <path
        d="m82.46 0c.53 4-1.81 10.3-1.91 13.85s-.39 5.38 1.23 6.79 5 .93 8.48 1.68c2.54.54 6.74.8 9.76 1.61" />
    <path d="m.08 5.56a7.6 7.6 0 0 1 .71-.68c2.88-2.46 8.63-3 12.43-4.3.64-.21 1.28-.4 1.91-.58" />
    <path
        d="m100 70.55c-3 0-6.74-.45-8.34.65-2.66 1.8-1.41 6.7-3.08 9.22s-4.45 4.15-7 5.91-5.1 4.28-8.07 4.65-6.68-2.52-9.74-2.45-5.63 2.47-8.56 2.86a24.17 24.17 0 0 1 -9-.64c-2.85-.76-5.42-2.68-8.13-3.91s-5-2.69-8.17-3.49-7.2-.41-10.73-1.35a48.42 48.42 0 0 1 -10.46-4.28c-2.72-1.49-6.59-2.91-8.72-5.09" />
    <path
        d="m89.72 0c-.87 2.75-1.62 4.65-2.07 6.55-1.4 6-4.45 10-2.59 11.92s9.86-1.13 13.77-.25c.4.09.78.2 1.16.31" />
    <path
        d="m25.85 100.06a20.83 20.83 0 0 0 -5.3-2.85c-4-1.37-10.09-.26-14-2.1-2.68-1.23-4.55-3.45-6.55-5.69" />
    <path d="m100 78.76c-4 1.65-3.1 7.31-5 10.75s-4 7.64-7 10l-.58.46" />
    <path d="m94.7 0c-2.78 8.38-8.58 14-6.48 16.47 1.32 1.53 6.78-.08 11.78-1.25"/>
    <path d="m98.75 0c-2.9 6-5.72 9.88-4.28 12.25.71 1.17 2.89 1.23 5.55.92" />
</svg>