<svg viewBox="0 0 100 100" xmlns="http://www.w3.org/2000/svg"><path d="m53 37.59c-.85.71-1.59 1.24-2.24 1.8s-1.15 1-1.64 1.57-1.16.69-1.31 1.55.58 2.64.38 3.62a4.54 4.54 0 0 1 -1.59 2.28c-.66.62-1.58.62-2.33 1.44s-1.27 2.33-2.2 3.51a44.28 44.28 0 0 1 -3.26 3.57c-1.34 1.38-3 3.62-4.75 4.71a11.1 11.1 0 0 1 -5.71 1.85 7.15 7.15 0 0 1 -4.86-2.16c-1.18-1.29-1.34-4-2.22-5.58a21 21 0 0 0 -3.06-3.61c-1.05-1.2-2.7-2.11-3.23-3.55s-.13-3.47 0-5.1 1.05-3.19 1-4.64-.94-2.62-1.42-4.06-1-2.92-1.46-4.59a26.11 26.11 0 0 1 -1.42-5.41 15.69 15.69 0 0 1 .84-5.38 13.11 13.11 0 0 1 2.41-5c1.2-1.3 3.41-1.59 4.78-2.83s1.74-4.22 3.44-4.58 4.85 1.77 6.78 2.39a20 20 0 0 0 5 1.31c1.55.05 2.92-1.36 4.29-1s2.68 2.15 3.94 2.91a11 11 0 0 0 3.61 1.65c1.36.27 3.43-.74 4.51-.06s1.41 2.85 1.95 4.19a26.2 26.2 0 0 1 1.29 3.87 8.69 8.69 0 0 1 .4 3.78c-.27 1.31-2.07 3.05-2.06 4.1s1.58 1.4 2.08 2.24 1.21 1.94.88 2.82-2 1.73-2.83 2.44"/><path d="m68.16-.08a42 42 0 0 1 3 9 22.68 22.68 0 0 1 .17 8.13c-.5 2.67-2.95 5.71-3.17 7.88s1.4 3.36 1.87 5.13a18.26 18.26 0 0 1 1 5.48 10.23 10.23 0 0 1 -1.53 5.37"/><path d="m69.48 40.93a15.48 15.48 0 0 1 -5 3.83c-1.8 1-4.57 1-5.78 2.05s-1.09 2.39-1.47 4-.11 4.09-.82 5.64-2.26 2.29-3.47 3.63a37.37 37.37 0 0 0 -3.74 4.39c-1.35 2-2.5 4.86-4.32 7.34a69.93 69.93 0 0 1 -6.6 7.5c-2.75 2.69-6.28 7.13-9.62 8.9a18.39 18.39 0 0 1 -10.74 1.71 17.89 17.89 0 0 1 -9.22-4.5c-2.47-2.27-3.7-6.35-5.59-9.13-1.11-1.65-2.26-3.11-3.39-4.56"/><path d="m89.36-.08c-.22 2.88-.77 5.82-1.21 8.39-.68 4.09-2.51 8-3 11.24s.33 5.75.19 8.52-1.51 5.3-1 8.12 4.35 6.25 3.78 8.8"/><path d="m88.09 45c-.58 2.55-4.11 5.06-7.22 6.5s-9.34.6-11.47 2.14-.52 4.86-1.36 7.06a18.65 18.65 0 0 1 -3.72 6.14c-1.62 1.65-4.29 1.52-6 3.79s-2.32 6.43-4.12 9.8a69.62 69.62 0 0 1 -6.85 10.42 94.45 94.45 0 0 1 -8.23 9"/><path d="m100.18 30.27c-1.91 2.19-4 4.35-3.56 6.74.24 1.46 1.66 3 3.38 4.65"/><path d="m100 58.51c-3.8 2.29-13 2.32-16 4.64s-.74 7.52-2.55 10.11-5.41 4-8.34 5.46-7-.26-9.25 3.13-2.23 13.28-4.6 18.15"/><path d="m100 87.81c-.35 1.12-.58 1.09-1.43 1.78-3.36 2.75-10.73 2-15.46 2.89s-10-2-12.91 2.45a15.08 15.08 0 0 0 -1.43 5.07"/></svg>