<svg viewBox="0 0 100 100" xmlns="http://www.w3.org/2000/svg"><path d="m69.12 53.54a21.27 21.27 0 0 0 -2.6 2.64c-.62.92-.47 2.14-1.16 2.87s-2.42.61-3 1.51-.11 2.61-.43 3.92a10 10 0 0 1 -1.51 4 5.62 5.62 0 0 1 -3.35 1.52c-1.2.17-2.61-1-3.82-.52s-2.07 2-3.45 3.25a55.41 55.41 0 0 1 -4.8 4.19c-1.91 1.41-4.73 4-6.64 4.2s-3.6-1.69-4.82-3.12-1.22-4.41-2.5-5.76-4.53-.75-5.18-2.29.46-4.79 1.31-7 3.09-4.54 3.78-6.17.26-2.47.35-3.62.18-2.2.21-3.29a32.58 32.58 0 0 0 0-3.27 12.86 12.86 0 0 0 -.51-3.71c-.51-1.54-2.09-3.68-2.53-5.57a13.1 13.1 0 0 1 -.11-5.8c.42-1.73 1.25-3.73 2.66-4.55s3.89-.51 5.75-.35 3.83 1.13 5.41 1.3 2.74.83 4.08-.24 2.39-4.66 4-6.19a10.62 10.62 0 0 1 5.59-3c1.8-.19 4.07.26 5.23 1.88s1.45 5.43 1.75 7.85a60.67 60.67 0 0 1 0 6.71 41.06 41.06 0 0 0 .17 4.35 17.37 17.37 0 0 0 .86 2.88 11 11 0 0 0 .74 2.67 6 6 0 0 0 2.2 2.36c1.33.89 5.38 2 5.77 3s-2.45 2.35-3.45 3.34"/><path d="m74.94 0c.45 2.36.74 4.8 1 6.84.58 4.71-.48 10.12-.28 13.65a32.43 32.43 0 0 0 1.46 7.51c.56 2.23 1.55 3.89 1.88 5.88s-.46 4.23.13 6a8.15 8.15 0 0 0 3.37 4.88c2.36 1.8 10.12 3.87 10.75 5.9s-5.14 4.37-7 6.3"/><path d="m13.05 100a19 19 0 0 0 -2.18-5c-2.19-3-6.87-3.6-7.93-6.9s.14-8.72 1.48-12.84 5.16-8.6 6.58-11.83 1.43-5.21 1.92-7.56 1.25-4.27 1-6.5-1.79-4.4-2.45-6.86-1-4.94-1.54-7.89-1.41-6.2-1.81-9.79-1.37-8.28-.6-11.76 2.6-7.18 5.2-9.11 6.71-2.77 10.39-2.48 8.38 3.89 11.64 4.23 5.18.1 7.89-2.16a15.67 15.67 0 0 0 2.9-3.8"/><path d="m86.26 57.05a41.53 41.53 0 0 0 -4.12 5.29c-1.23 1.72-1.93 3.57-3.26 5s-3.94 1.58-4.76 3.66.51 6-.12 8.6-2 5.4-3.82 6.81-4.84.82-7.15 1.44-4.37.82-6.68 2.27-4.36 4.1-7.16 6.41c-1.35 1.11-2.76 2.28-4.29 3.48"/><path d="m89 0a37.08 37.08 0 0 0 -.08 6c.5 5.07 2.38 7.08 3.36 10.36s2.37 6.11 2.54 9.3-1.88 7-1.51 9.85.69 4.78 3.69 7.49a14.85 14.85 0 0 0 3 1.82"/><path d="m100 62.19c-1.6 2.11-2.49 4.1-4 5.91-2 2.29-4.59 4-6.4 6.13s-3.8 3.46-4.53 6.77 1.17 9.55.12 13.21a16.69 16.69 0 0 1 -3.11 5.91"/><path d="m100.16 76.7a8.46 8.46 0 0 0 -3.39 2.52c-2 2.91-1.27 6.79-1.66 11.39-.23 2.62.09 6.08.11 9.39"/></svg>