<svg viewBox="0 0 100 100" xmlns="http://www.w3.org/2000/svg"><path d="m93 29.89a15.93 15.93 0 0 1 3.68 5.34c.58 1.75-.09 3.33-.25 5.17s.19 4.43-.73 5.85-3.27 1.75-4.81 2.66-2.79 2.21-4.44 2.64-3.8-.55-5.45-.07-2.77 2.59-4.31 2.68-3.5-1-4.94-2.18-2.58-3.58-3.69-4.83a10.47 10.47 0 0 0 -3-2.72c-1.1-.54-2.53-.12-3.64-.56a6.11 6.11 0 0 1 -3-2c-.64-1-.13-3-.85-4s-1.57-1.31-3.43-1.76-5.91-.15-7.82-1a6.38 6.38 0 0 1 -3.67-4.19c-.28-1.55 1.34-3.55 2-5.15s1.65-2.94 2.11-4.43 0-3.2.62-4.53 2.13-2.32 3.13-3.44 1.81-2.29 2.86-3.25 2.63-1.12 3.46-2.53.52-4.46 1.53-5.7 2.9-1.64 4.49-1.74a10.19 10.19 0 0 1 5 1.15 12 12 0 0 1 4.33 3.7c1.14 1.69 1.84 4.8 2.52 6.39a13 13 0 0 0 1.57 3.15c.58.68.8 1.16 1.9.95s3-1.73 4.7-2.25a15.47 15.47 0 0 1 5.6-.85 6.69 6.69 0 0 1 3.72 2.16 7.33 7.33 0 0 1 2 3.56c.26 1.3.64 2.88-.42 4.22s-5.86 2.52-6 3.78 3.75 2.24 5.23 3.75"/><path d="m78.63-.17a10.43 10.43 0 0 0 2.47 2.46c1.28 1 1.8 2.2 4.05 1.83s6.18-3.34 9.43-4.12"/><path d="m100.12 76.73c-3.34.7-7.58-1.37-10.75-.29s-5.26 6.33-8.31 6.75-7.14-1.61-10-4.28-4.82-9.17-7.06-11.75-4.25-2.62-6.37-3.73-4.32-1.79-6.36-2.93-4.48-2.07-5.88-3.89-.81-5.33-2.52-7-3.87-2.26-7.73-3.18-11.9-.54-15.52-2.43-5.48-5.59-6.2-8.76.47-7.1 1.9-10.27 5.28-5.8 6.65-8.74.47-6.14 1.55-8.88a29.12 29.12 0 0 1 4.93-7.52"/><path d="m66.06 100c-2.27-4.82-4.21-10.57-6.44-13.14-3.38-3.9-6.93-2.29-10-4.07s-5.7-4.41-8.35-6.66a63.11 63.11 0 0 1 -7.57-6.86c-2.17-2.55-2.42-6.38-5.45-8.48s-6.64-2.79-12.72-4.13c-3.8-.83-10-1-15.47-1.69"/><path d="m39.92 100a67.23 67.23 0 0 1 -8.44-9.15c-2.92-3.68-4.66-8.23-7.44-11.58s-4.53-6.45-9.26-8.56c-3.89-1.71-8.51-2.34-14.78-3.37"/><path d="m21 100c-1.86-4.31-3-9-5.59-12.21-3.34-4-5.87-6.77-12.7-8.6a23.05 23.05 0 0 0 -2.71-.55"/><path d="m9 100.11a16.2 16.2 0 0 0 -2.46-3.91 25.84 25.84 0 0 0 -6.54-5.84"/></svg>