<svg viewBox="0 0 100 100" xmlns="http://www.w3.org/2000/svg"><path d="m59.34 59.1c-.28.62-.92 1.09-1.21 1.69s-.06 1.45-.51 1.88-1.9 0-2.17.69.76 2.61.51 3.3-1.28.79-2 .85a8.8 8.8 0 0 1 -2.4-.47c-.72-.18-1.36-.77-2-.59s-.93.68-1.68 1.69-1.88 3.8-2.78 4.4-1.76-.5-2.64-.77a13.9 13.9 0 0 1 -2.67-.87c-.8-.44-2-.75-2.14-1.8s1-3.4 1.14-4.53-.45-1.43-.29-2.21 1.34-1.83 1.27-2.45-1.33-.75-1.68-1.25.52-1-.45-1.75-3.92-1.64-5.4-2.83a12 12 0 0 1 -3.5-4.27 4 4 0 0 1 .46-3.87c.78-.88 3.13-.73 4.17-1.42a7.93 7.93 0 0 0 2.11-2.68c.69-1 1.13-2.51 2-3.4a8.26 8.26 0 0 1 3.25-1.92c1.17-.38 2.52-1 3.76-.39s2.62 2.66 3.64 3.78 1.74 2.13 2.47 3a16.54 16.54 0 0 0 1.93 2c.65.51 1.57.42 2 1.08s.3 2.08.47 2.9-.4 1.8.52 2 4.07-1.15 5-.89.45 1.64.59 2.44a5.43 5.43 0 0 1 .29 2.41c-.22.79-1.26 1.62-1.6 2.34s-.19 1.39-.47 2"/><path d="m74 62.05c-.38 1.41-1.68 2.74-2.7 3.89a27.83 27.83 0 0 1 -3.38 3c-1.12.92-2.69 1.13-3.28 2.5s.47 4.5-.29 5.71-2.78 1.42-4.3 1.55-3.36-.64-4.82-.76-2.61-.51-3.89 0-2.13 1.27-3.74 3.22-4.09 7.5-5.93 8.44-3.53-1.74-5.11-2.78-2.94-2.37-4.4-3.47-4-1.19-4.37-3.12 1.91-6.43 1.92-8.44-2.09-2.15-1.83-3.66 3.31-4.06 3.39-5.4-1.88-1.62-2.94-2.65-1.37-2-3.43-3.52-6.47-3.47-8.94-5.83-5.17-5.73-5.87-8.28a8.15 8.15 0 0 1 1.69-7.21c1.54-1.73 5.67-1.66 7.55-3.16s2.36-3.87 3.72-5.89 2.6-4.57 4.42-6.23a17.75 17.75 0 0 1 6.53-3.74c2.32-.74 5-2 7.47-.71s5.1 6.3 7.15 8.33 3.62 2.47 5.12 3.83 2.43 3.46 3.89 4.34 4.26-.69 4.86.94-1.33 6.86-1.21 8.82.3 2.54 1.92 2.95 5.88-1 7.81-.45a5.56 5.56 0 0 1 3.8 3.51c.43 1.45-1 3.56-1.18 5.17a25.08 25.08 0 0 0 0 4.5c.06 1.51.79 3.18.41 4.6"/><path d="m42.35-.24c2.43 3.55 4.83 8.35 6.88 10.24 3 2.75 5.5 1.11 7.82 2.54s3.69 5 6.1 6 7.63-2.65 8.37.07-3.88 12.93-4 16.29 1.28 3.1 3.42 3.85 6.53-.12 9.43.67 7.08 2.09 8 4.07-2.67 5.41-2.47 7.85 2.65 4.31 3.68 6.75 2.76 5.43 2.51 7.88"/><path d="m0 22c2.08-.68 4.19-1.33 5.51-2.63 2.49-2.47 2.49-7.11 4.68-9.9s5.33-4.81 8.32-6.78c1.33-.87 3.7-1.9 5.11-2.69"/><path d="m27.68 100a44.53 44.53 0 0 0 -3.29-4.51c-1.91-2.08-5.17-2.47-5.88-5.2s2.11-8.55 1.65-11.18-4.59-2.44-4.42-4.63 5.19-6.38 5.4-8.53-2.22-2.7-4.11-4.36-4.13-3.14-7.24-5.59c-2.63-2.07-6.68-4.56-9.79-7.44"/><path d="m92.09 66c-.26 2.45-2.14 5-4 6.8s-5.42 2.7-7.38 4.24a16.1 16.1 0 0 0 -4.36 5c-1.17 2-1 5.78-2.64 7.23s-5 1.14-7.35 1.47-4.68.27-6.86.5-4.12 0-6.2.88a16.91 16.91 0 0 0 -6.3 4.33 27.24 27.24 0 0 0 -2.78 3.55"/><path d="m50 0c3.86 3.45 7 0 10.14 1s5.47 3.17 8.86 4.12 10.22-3.34 11.36.15-4.43 16.37-4.49 20.82 1.55 4.6 4.13 5.91 7.7.74 11.18 2 7.27 2.11 8.85 4.7"/><path d="m9.62 100c-1-3.67.34-9.33-.67-12.49s-5.14-4-5.36-6.9 4.22-7.62 4-10.49-2.75-4.21-5.16-6.72c-.75-.78-1.56-1.55-2.43-2.34"/><path d="m99.91 86.18c-.83.59-1.62 1.18-2.33 1.8-2.71 2.41-4.91 4.7-7.22 7.16a55.51 55.51 0 0 0 -3.9 4.9"/><path d="m88.68-.24c-.55 5.06-2.18 11.5-1.68 14.73.69 4.85 2.69 6.16 5.48 8.41 1.86 1.5 4.75 2.25 7.47 3.26"/></svg>