<svg viewBox="0 0 100 100" xmlns="http://www.w3.org/2000/svg"><path d="m79.38 67.67a9.53 9.53 0 0 0 -.66 2.46c-.13.89.09 2-.1 2.89s-.77 1.63-1 2.76.13 3.07-.42 4-2 .91-2.87 1.69a25.18 25.18 0 0 0 -2.43 3 40.92 40.92 0 0 1 -3 3.76 23.16 23.16 0 0 1 -4.12 3.35c-1.54.94-3.51 2.29-5.12 2.28s-3.15-1.45-4.59-2.31-2.64-2-4-2.84-2.88-1.44-4.34-2.28a21.38 21.38 0 0 1 -4.38-2.74c-1.2-1.17-1.77-2.87-2.8-4.28s-2.6-2.64-3.36-4.21a20.67 20.67 0 0 1 -1.25-5.2 22 22 0 0 1 -.76-5.3c.13-1.74 1.1-3.44 1.49-5.17s.1-3.67.85-5.21a10 10 0 0 1 3.6-4c1.54-1 4-1.22 5.62-1.8s3-1.07 4.34-1.65a23.3 23.3 0 0 0 3.62-1.87c1.15-.77 2-2.21 3.26-2.73s2.8-.08 4.18-.38a20.66 20.66 0 0 0 4.07-1.39c1.48-.64 3.14-2.05 4.78-2.45a9 9 0 0 1 5 .1c1.48.56 2.36 2.5 3.84 3.28s3.4.74 5 1.41a17.92 17.92 0 0 1 4.75 2.63 15.44 15.44 0 0 1 3.42 4.27 25.87 25.87 0 0 1 1.8 5.07c.52 1.7 3.43 3.44 1.27 5.16s-11.65 3.89-14.27 5.17-1.07 1.69-1.42 2.53"/><path d="m100.1 64.57a25.64 25.64 0 0 0 -2.39 1c-5 2.5-2.57 3.5-3.64 5.08"/><path d="m18.66 99.86c-1.78-2-3.5-4.1-5.18-6.3-2.11-2.76-4.85-5.56-6.09-8.72s-.7-7-1.36-10.5-2.73-7-2.63-10.42 2.37-6.84 3.24-10.26.52-7.23 2-10.3a21.63 21.63 0 0 1 6.84-8.12c2.91-2 7.21-3 10.62-4.07s7-1.16 9.82-2.1a31.51 31.51 0 0 0 7.23-3.51c2.29-1.43 4.14-3.79 6.54-5.06a31.92 31.92 0 0 1 7.86-2.5c2.69-.59 5.28.25 8.29-1s6.58-5.9 9.79-6.62 6.55 1 9.47 2.32 5.12 4 8.1 5.44a43 43 0 0 0 6.8 2.09"/><path d="m94.07 70.65c-1.08 1.58-2.29 2.77-2.82 4.43s.09 3.74-.34 5.49-1.74 2.89-2.23 5 .16 5.66-.73 7.76-2.87 3.36-4.56 4.82a18.29 18.29 0 0 1 -2.81 1.85"/><path d="m0 14.85a58.58 58.58 0 0 1 6.09-1.94c5.22-1.37 11.83-.31 16.33-1.4s7.33-3 10.71-5.15c2.73-1.74 5-4.25 7.64-6.36"/></svg>